<svg xmlns="http://www.w3.org/2000/svg" width="81.596" height="81.596" viewBox="0 0 230.281 230.281"><path fill="none" stroke="#fff" stroke-width="40" d="m-2717.938 16943.813 80 170-80 170-80-170z"/><path fill="#fff" stroke="#000" stroke-width="1.693" d="M21.175.845h187.92c11.188 0 20.342 9.155 20.342 20.338v187.925c0 11.186-9.154 20.337-20.341 20.337H21.175c-11.187 0-20.338-9.15-20.338-20.337V21.183C.837 10 9.988.845 21.175.845"/><path fill="#155196" fill-rule="evenodd" d="M21.175 5.925h187.92c8.397 0 15.266 6.869 15.266 15.258v187.924c0 8.396-6.869 15.261-15.265 15.261H21.175c-8.39 0-15.254-6.865-15.254-15.26V21.182c0-8.39 6.865-15.258 15.254-15.258"/><path fill="#fff" fill-rule="evenodd" d="M91.541 56.83c8.203-.76 14.574-7.826 14.574-16.088 0-8.893-7.253-16.146-16.143-16.146-8.894 0-16.15 7.253-16.15 16.146 0 2.713.758 5.49 2.017 7.825l5.754 80.959 59.263.021 24.303 56.95 31.905-12.517-4.939-11.766-17.857 6.442-23.516-54.289-55.104.367-.748-10.252 39.885.014V89.327l-41.41-.018-1.834-32.48z"/><path fill="#fff" fill-rule="evenodd" d="M151.143 172.943c-9.997 19.77-30.938 32.797-53.262 32.797-32.798 0-59.553-26.75-59.553-59.548 0-23.026 13.96-44.426 34.784-53.915l1.351 17.589c-12.322 7.761-19.914 21.766-19.914 36.449 0 23.788 19.41 43.194 43.201 43.194 21.767 0 40.323-16.704 42.86-38.135l10.533 21.569z"/></svg>