<svg xmlns="http://www.w3.org/2000/svg" width="28" height="28" viewBox="0 0 28 28"><path fill="#0084FF" d="M14.437 3.103a1 1 0 0 1 .455.455l2.923 5.924 6.538.95a1 1 0 0 1 .555 1.706l-4.731 4.611 1.117 6.512a1 1 0 0 1-1.451 1.054l-5.848-3.074-5.848 3.074a1 1 0 0 1-1.45-1.054l1.116-6.512-4.731-4.611a1 1 0 0 1 .554-1.706l6.538-.95 2.924-5.924a1 1 0 0 1 1.34-.455Zm-3.267 7.75-6.315.918 4.57 4.455-1.08 6.29 5.65-2.97 5.649 2.97-1.08-6.29 4.571-4.455-6.316-.918-2.824-5.723-2.825 5.723Z"/><path fill="#0084FF" d="m11.17 10.853-6.315.918 4.57 4.455-1.08 6.29 5.65-2.97 5.649 2.97-1.08-6.29 4.571-4.455-6.316-.918-2.824-5.723-2.825 5.723Z"/></svg>
