<svg xmlns="http://www.w3.org/2000/svg" width="123" height="20" fill="none"><path fill="#FBBC04" d="m9.5.234 2.935 6.253L19 7.497l-4.75 4.864 1.121 6.873L9.5 15.987l-5.871 3.247L4.75 12.36 0 7.496l6.564-1.009L9.5.234ZM35.498.234l2.936 6.253 6.564 1.01-4.75 4.864 1.121 6.873-5.871-3.247-5.871 3.247 1.121-6.873-4.75-4.865 6.564-1.009L35.498.234ZM61.497.234l2.936 6.253 6.564 1.01-4.75 4.864 1.121 6.873-5.87-3.247-5.872 3.247 1.121-6.873-4.75-4.865 6.565-1.009L61.497.234ZM87.496.234l2.936 6.253 6.564 1.01-4.75 4.864 1.121 6.873-5.87-3.247-5.872 3.247 1.121-6.873-4.75-4.865 6.565-1.009L87.496.234ZM113.5.234l2.936 6.253L123 7.497l-4.75 4.864 1.121 6.873-5.871-3.247-5.871 3.247 1.121-6.873L104 7.496l6.564-1.009L113.5.234Z"/></svg>