<svg xmlns="http://www.w3.org/2000/svg" width="24" height="25"><path fill="#CCC" d="M12.375 2.815c.169.084.306.22.39.39l2.505 5.078 5.604.814a.857.857 0 0 1 .475 1.462l-4.055 3.953.957 5.581a.857.857 0 0 1-1.243.904l-5.012-2.636-5.013 2.636a.857.857 0 0 1-1.244-.904l.958-5.581-4.055-3.953a.857.857 0 0 1 .475-1.462l5.604-.814 2.506-5.078a.857.857 0 0 1 1.148-.39Zm-2.8 6.643-5.414.786 3.917 3.819-.925 5.391 4.843-2.545 4.841 2.546-.924-5.392 3.917-3.819-5.413-.786-2.421-4.906-2.422 4.906Z"/><path fill="#CCC" d="m9.574 9.458-5.413.786 3.917 3.819-.925 5.391 4.843-2.545 4.841 2.546-.924-5.392 3.917-3.819-5.413-.786-2.421-4.906-2.422 4.906Z"/></svg>
