<svg xmlns="http://www.w3.org/2000/svg" width="28" height="28" viewBox="0 0 28 28"><path fill="#fff" stroke="#999" d="m17.367 9.703.116.236.26.038 6.539.95a.5.5 0 0 1 .277.853l-4.731 4.611-.189.184.045.259 1.117 6.511a.5.5 0 0 1-.726.527l-5.848-3.074-.232-.122-.233.122-5.848 3.074a.5.5 0 0 1-.725-.527l1.117-6.511.044-.26-.188-.183L3.43 11.78a.5.5 0 0 1 .277-.853l6.538-.95.26-.038.117-.236 2.923-5.924a.5.5 0 0 1 .67-.227l.22-.445-.22.445a.5.5 0 0 1 .227.227l2.924 5.924Zm-6.125 1.645.26-.038.117-.236 2.376-4.814 2.376 4.814.116.236.26.038 5.314.772-3.845 3.748-.188.183.044.26.908 5.29-4.753-2.498-.232-.122-.233.122-4.752 2.499.907-5.292.045-.259-.188-.183-3.845-3.748 5.313-.772Zm-6.46-.072-1.002.146.725.707L8.887 16.4l-1.034 6.031-.171.999.896-.472 5.417-2.847 5.416 2.847.897.472-.171-.999-1.035-6.03 4.382-4.272.726-.707-1.003-.146-6.056-.88-2.708-5.487L13.995 4l-.449.909-2.708 5.487-6.055.88Z"/></svg>
