<svg xmlns="http://www.w3.org/2000/svg" width="109" height="24" fill="none"><g fill="#FFB300" clip-path="url(#a)"><path d="M19.895.5H2.203a.663.663 0 0 0-.664.663v11.242c0 1.608.412 3.203 1.192 4.61a9.534 9.534 0 0 0 3.278 3.454l4.688 2.93a.663.663 0 0 0 .703 0l4.689-2.93a9.534 9.534 0 0 0 3.277-3.454 9.533 9.533 0 0 0 1.192-4.61V1.163A.664.664 0 0 0 19.895.5Zm-.664 11.905a8.136 8.136 0 0 1-3.846 6.939l-4.336 2.71-4.337-2.71a8.136 8.136 0 0 1-3.846-6.94V1.828h16.365v10.578Z"/><path d="M17.24 3.15H4.856a.663.663 0 0 0-.664.664V12.4c0 1.16.298 2.31.86 3.324a6.871 6.871 0 0 0 2.363 2.49l3.282 2.051a.663.663 0 0 0 .703 0l3.282-2.051a6.873 6.873 0 0 0 2.362-2.49 6.873 6.873 0 0 0 .86-3.324V3.814a.663.663 0 0 0-.664-.664Zm-.663 9.251c0 .936-.24 1.862-.693 2.68a5.542 5.542 0 0 1-1.906 2.009l-2.93 1.831-2.93-1.831a5.542 5.542 0 0 1-1.906-2.008 5.543 5.543 0 0 1-.693-2.68V4.476h11.058v7.924Z"/><path d="M13.702 9.875a1.91 1.91 0 0 0-1.907-1.908h-.083v-.829a.663.663 0 0 0-1.327 0v.83H9.058a.663.663 0 0 0-.663.663v4.976c0 .366.297.663.663.663h1.327v.83a.664.664 0 0 0 1.327 0v-.83h.083a1.91 1.91 0 0 0 1.907-1.907c0-.475-.175-.91-.463-1.244.288-.334.463-.77.463-1.244Zm-1.907 3.068H9.72v-1.16h2.074a.581.581 0 0 1 0 1.16Zm0-2.488H9.72v-1.16h2.074a.581.581 0 0 1 0 1.16Z"/></g><path fill="#999" d="M27.473 10.838V1.73h3.647c.67 0 1.229.099 1.677.298.447.198.784.474 1.01.827.224.35.337.753.337 1.21 0 .355-.071.668-.213.938a1.843 1.843 0 0 1-.587.658c-.246.169-.528.29-.845.36v.09a2.079 2.079 0 0 1 1.717 1.054c.19.322.284.708.284 1.156 0 .483-.12.914-.36 1.294-.237.376-.589.674-1.054.894-.466.219-1.04.329-1.721.329h-3.892ZM29.4 9.263h1.57c.537 0 .928-.102 1.174-.307.246-.207.369-.483.369-.827 0-.252-.06-.474-.182-.667a1.239 1.239 0 0 0-.52-.453 1.783 1.783 0 0 0-.797-.165H29.4v2.42Zm0-3.722h1.427c.264 0 .499-.046.703-.138a1.17 1.17 0 0 0 .49-.4c.12-.172.182-.378.182-.618a1 1 0 0 0-.352-.796c-.23-.202-.56-.303-.987-.303H29.4v2.255Zm6.103 5.297V1.73h1.926v7.52h3.905v1.588h-5.83Zm14.87-4.554c0 .993-.187 1.838-.564 2.535-.373.696-.883 1.229-1.53 1.596-.643.365-1.367.547-2.17.547-.81 0-1.536-.184-2.18-.551-.643-.368-1.151-.9-1.525-1.597-.373-.697-.56-1.54-.56-2.53 0-.994.187-1.839.56-2.535.374-.697.882-1.228 1.526-1.592.643-.368 1.37-.552 2.179-.552.803 0 1.527.184 2.17.552.647.364 1.157.895 1.53 1.592.377.696.565 1.541.565 2.535Zm-1.952 0c0-.644-.096-1.186-.289-1.628-.19-.442-.458-.777-.805-1.005-.346-.228-.753-.343-1.218-.343-.466 0-.872.115-1.219.343-.347.228-.616.563-.81 1.005-.189.442-.284.984-.284 1.628 0 .643.095 1.186.285 1.627.193.442.462.777.81 1.005.346.229.752.343 1.218.343.465 0 .872-.114 1.218-.343.347-.228.616-.563.805-1.005.193-.441.29-.984.29-1.627Zm11.165-1.366h-1.948a1.905 1.905 0 0 0-.218-.671 1.71 1.71 0 0 0-.422-.507 1.86 1.86 0 0 0-.596-.32 2.28 2.28 0 0 0-.725-.112c-.471 0-.882.118-1.232.352-.35.231-.621.569-.814 1.014-.193.442-.289.978-.289 1.61 0 .649.096 1.195.29 1.636.195.442.468.776.818 1 .35.226.754.339 1.214.339.258 0 .496-.034.716-.102.222-.069.42-.168.591-.298.172-.134.314-.295.427-.485.116-.19.196-.406.24-.65l1.948.01a3.636 3.636 0 0 1-1.183 2.246 3.788 3.788 0 0 1-1.2.72 4.412 4.412 0 0 1-1.57.262c-.813 0-1.54-.184-2.18-.551-.637-.368-1.141-.9-1.512-1.597-.367-.697-.551-1.54-.551-2.53 0-.994.186-1.839.56-2.535.374-.697.88-1.228 1.521-1.592.64-.368 1.36-.552 2.161-.552.528 0 1.017.074 1.468.222.454.149.855.365 1.205.65.35.281.635.627.854 1.036.222.41.365.878.427 1.405Zm1.13 5.92V1.73h1.926v4.016h.12L66.04 1.73h2.308l-3.38 4.078 3.42 5.03h-2.304L63.59 7.093 62.64 8.25v2.589h-1.925Zm15.907-5.92h-1.948a1.905 1.905 0 0 0-.218-.671 1.708 1.708 0 0 0-.422-.507 1.86 1.86 0 0 0-.596-.32 2.28 2.28 0 0 0-.725-.112c-.471 0-.882.118-1.232.352-.35.231-.621.569-.814 1.014-.193.442-.289.978-.289 1.61 0 .649.096 1.195.29 1.636.195.442.468.776.817 1 .35.226.755.339 1.215.339.257 0 .496-.034.715-.102.223-.069.42-.168.592-.298.172-.134.314-.295.427-.485a1.89 1.89 0 0 0 .24-.65l1.948.01a3.636 3.636 0 0 1-1.183 2.246 3.79 3.79 0 0 1-1.2.72 4.412 4.412 0 0 1-1.57.262c-.813 0-1.54-.184-2.18-.551-.637-.368-1.141-.9-1.512-1.597-.368-.697-.551-1.54-.551-2.53 0-.994.186-1.839.56-2.535.374-.697.88-1.228 1.521-1.592.64-.368 1.36-.552 2.161-.552.528 0 1.017.074 1.468.222.454.149.855.365 1.205.65.35.281.635.627.854 1.036.223.41.365.878.427 1.405Zm1.13 5.92V1.73h1.926v3.758h3.91V1.73h1.92v9.108h-1.92V7.075h-3.91v3.763h-1.926Zm10.664 0h-2.064l3.144-9.108h2.482l3.14 9.108h-2.064L90.773 3.81H90.7l-2.285 7.027Zm-.13-3.58h4.875V8.76h-4.874V7.258ZM97.89 1.73v9.108h-1.925V1.73h1.925Zm8.952 0v9.108h-1.663l-3.963-5.733h-.066v5.733h-1.926V1.73h1.69l3.931 5.728h.08V1.73h1.917ZM33.207 17.462h-1.44a1.41 1.41 0 0 0-.161-.496 1.262 1.262 0 0 0-.313-.375 1.372 1.372 0 0 0-.44-.236 1.685 1.685 0 0 0-.536-.082c-.348 0-.652.086-.91.26-.259.17-.46.42-.602.749-.142.326-.213.723-.213 1.19 0 .48.07.883.213 1.21.145.326.346.572.605.739.259.166.558.25.897.25.191 0 .367-.025.53-.076a1.269 1.269 0 0 0 .753-.579c.085-.14.144-.3.177-.48l1.44.007a2.687 2.687 0 0 1-.874 1.66 2.801 2.801 0 0 1-.888.533c-.342.13-.729.194-1.16.194-.601 0-1.138-.136-1.611-.408a2.893 2.893 0 0 1-1.118-1.18c-.272-.515-.408-1.138-.408-1.87 0-.735.139-1.359.415-1.874.276-.515.65-.907 1.124-1.177a3.15 3.15 0 0 1 1.597-.407c.39 0 .752.054 1.085.164.335.11.632.27.89.48.26.208.47.463.632.766.164.302.27.649.316 1.038Zm7.021 1.01c0 .734-.139 1.358-.417 1.873a2.894 2.894 0 0 1-1.13 1.18c-.476.27-1.011.405-1.605.405a3.188 3.188 0 0 1-1.61-.408 2.901 2.901 0 0 1-1.128-1.18c-.276-.515-.414-1.138-.414-1.87 0-.735.138-1.359.414-1.874a2.88 2.88 0 0 1 1.127-1.177 3.189 3.189 0 0 1 1.611-.407c.594 0 1.129.136 1.604.407.478.27.855.662 1.131 1.177.278.515.417 1.14.417 1.874Zm-1.443 0c0-.476-.07-.877-.213-1.203a1.629 1.629 0 0 0-.595-.743 1.601 1.601 0 0 0-.9-.253 1.6 1.6 0 0 0-.901.253 1.648 1.648 0 0 0-.599.743c-.14.326-.21.727-.21 1.203 0 .475.07.876.21 1.203.143.326.342.574.599.743a1.6 1.6 0 0 0 .9.253c.344 0 .644-.085.9-.253a1.63 1.63 0 0 0 .596-.743c.142-.327.213-.728.213-1.203Zm7.944-3.366v6.732h-1.23L42.57 17.6h-.049v4.237h-1.423v-6.732h1.249l2.906 4.234h.059v-4.234h1.416Zm.99 6.732v-6.732h4.458v1.173h-3.034v1.604h2.738v1.174h-2.738v2.78h-1.424Zm6.653-6.732v6.732H52.95v-6.732h1.423Zm.986 6.732v-6.732h2.656c.509 0 .942.09 1.302.273.361.18.636.434.825.765.19.33.286.716.286 1.16 0 .448-.096.832-.29 1.155-.192.32-.472.565-.837.736-.364.17-.805.256-1.322.256H56.2v-1.144h1.548c.272 0 .497-.037.677-.111a.805.805 0 0 0 .401-.336c.09-.149.135-.334.135-.555 0-.224-.045-.412-.135-.566a.826.826 0 0 0-.404-.348 1.658 1.658 0 0 0-.68-.122h-.96v5.569h-1.424Zm3.636-3.064 1.673 3.064h-1.571l-1.637-3.064h1.535Zm2.254-3.668h1.755l1.854 4.523h.079l1.854-4.523h1.755v6.732h-1.38v-4.382h-.056l-1.742 4.349h-.94l-1.743-4.366h-.056v4.399h-1.38v-6.732Zm8.285 6.732v-6.732h4.536v1.173h-3.113v1.604h2.88v1.174h-2.88v1.607h3.126v1.174h-4.55Zm7.869 0h-2.387v-6.732h2.406c.678 0 1.26.134 1.75.404.488.267.864.652 1.127 1.154.265.502.397 1.102.397 1.801 0 .701-.132 1.304-.397 1.808-.263.504-.641.89-1.134 1.16-.491.27-1.079.405-1.762.405Zm-.963-1.22h.904c.42 0 .774-.074 1.061-.223.29-.152.507-.385.651-.7.147-.318.22-.728.22-1.23 0-.497-.073-.904-.22-1.22a1.425 1.425 0 0 0-.647-.696c-.287-.15-.641-.224-1.062-.224h-.907v4.293Zm9.47 1.22h-2.387v-6.732h2.406c.677 0 1.26.134 1.749.404.489.267.864.652 1.127 1.154.266.502.398 1.102.398 1.801 0 .701-.132 1.304-.398 1.808-.263.504-.64.89-1.134 1.16-.49.27-1.078.405-1.762.405Zm-.964-1.22h.904c.421 0 .775-.074 1.062-.223a1.44 1.44 0 0 0 .65-.7c.148-.318.221-.728.221-1.23 0-.497-.073-.904-.22-1.22a1.426 1.426 0 0 0-.648-.696c-.287-.15-.64-.224-1.061-.224h-.908v4.293Zm5.907 1.22h-1.525l2.324-6.732h1.834l2.32 6.732H94.28l-1.686-5.194h-.052l-1.69 5.194Zm-.095-2.646h3.602v1.11h-3.602v-1.11Zm4.595-2.913v-1.173h5.529v1.173H98.82v5.559h-1.407v-5.559h-2.061Zm6.592 5.559h-1.525l2.324-6.732h1.834l2.321 6.732h-1.526l-1.686-5.194h-.052l-1.69 5.194Zm-.095-2.646h3.602v1.11h-3.602v-1.11Z"/><defs><clipPath id="a"><path fill="#fff" d="M.682 0h20v24h-20z"/></clipPath></defs></svg>