<svg xmlns="http://www.w3.org/2000/svg" width="42" height="27" fill="none"><path fill="#C7C7C7" fill-rule="evenodd" d="M8.142 9.276h26.491a5.89 5.89 0 0 1 0 11.781H8.142v-.059c-.275.04-.556.06-.841.06v.84h27.332a6.732 6.732 0 0 0 0-13.463H7.301v.841c.285 0 .566.02.84.06v-.06Z" clip-rule="evenodd"/><path fill="#FFC107" d="M12.066 10.501v.67h-.771v-.772h.67a6.72 6.72 0 0 0-4.718-1.928 6.748 6.748 0 0 0-6.746 6.75c0 3.727 3.02 6.748 6.746 6.748a6.748 6.748 0 0 0 4.819-11.468Zm-4.819 9.54a4.82 4.82 0 0 1-4.819-4.82 4.82 4.82 0 0 1 8.232-3.403v-.012h.803v.803h-.17c.488.753.773 1.648.773 2.611a4.82 4.82 0 0 1-4.819 4.821ZM14.38 7.314h.77v.771h-.77v-.771Zm2.313-.771h.77v.771h-.77v-.771Zm0-1.543h.77v.771h-.77V5Z"/><path fill="#fff" d="M12.837 7.313h.77v1.543h-.77V7.313Zm-.771 1.543h.77v.77h-.77v-.77Zm1.542 0h.77v.77h-.77v-.77Zm.77-2.314h1.543v.77h-1.542v-.77Zm0 1.542h.772v.772h-.771v-.772Zm1.543-2.314h.77v.772h-.77V5.77Zm-3.084 3.857v.771h-.771v.772h-.771v-.772h-.771v.772h-.771v1.542h-.771c-.571.908-.923 1.668-1.735 3.086 0 0-1.835-2.695-2.891-2.695 0 0-.386-.035-.386.353 0 .387.386.704.386.704s1.426 1.328 2.095 3.616c.07.247.281.704.88.704.352 0 .669-.281.88-.704.352-.704 1.514-2.846 2.313-3.907v-.385h.771v-.772h-.771V11.941h.77v.771h.772v-.771h.77v-.771h.772V9.627h-.771Z"/><path fill="#36464E" d="M11.294 9.626h1.542v.771h-1.542v-.771Zm1.542-2.313h1.542v.771h-1.542v-.771Z"/><path fill="#fff" d="M16.69 14.436a.143.143 0 0 1-.106-.041.143.143 0 0 1-.041-.106v-3.826c0-.044.014-.079.041-.106a.143.143 0 0 1 .106-.042h.624c.067 0 .114.016.141.048a.26.26 0 0 1 .06.064l1.436 2.267v-2.231c0-.044.013-.079.04-.106a.143.143 0 0 1 .107-.042h.706a.143.143 0 0 1 .147.147v3.827c0 .04-.013.075-.04.106a.143.143 0 0 1-.107.041h-.63c-.062 0-.11-.015-.14-.047a.818.818 0 0 1-.054-.065l-1.436-2.178v2.143a.143.143 0 0 1-.041.106.143.143 0 0 1-.107.041h-.706Zm5.468.06c-.33 0-.609-.054-.836-.16a1.193 1.193 0 0 1-.518-.453 1.56 1.56 0 0 1-.2-.712 5.382 5.382 0 0 1 0-.53 1.45 1.45 0 0 1 .211-.713c.126-.196.3-.347.524-.453.228-.106.5-.159.819-.159.321 0 .594.053.818.16.227.105.404.256.53.452.125.197.196.434.212.713a5.16 5.16 0 0 1 0 .53 1.517 1.517 0 0 1-.206.712c-.118.196-.29.347-.518.453-.224.106-.503.16-.836.16Zm0-.72c.176 0 .304-.052.382-.158.083-.106.13-.265.142-.477.003-.059.005-.137.005-.235 0-.099-.002-.177-.006-.236-.011-.208-.058-.365-.14-.47-.08-.11-.207-.166-.383-.166-.173 0-.3.055-.383.165-.082.106-.128.263-.135.471a3.732 3.732 0 0 0-.006.236c0 .098.002.176.006.235.007.212.052.371.135.477.082.106.21.159.383.159Zm2.292.66a.143.143 0 0 1-.106-.041.143.143 0 0 1-.042-.106v-2.767c0-.039.014-.072.042-.1a.134.134 0 0 1 .106-.047h.677c.043 0 .078.016.106.047.027.028.04.061.04.1v.236c.107-.122.232-.216.378-.283.149-.067.316-.1.5-.1h.259c.04 0 .073.014.1.041a.134.134 0 0 1 .047.106v.607c0 .039-.015.074-.047.106a.136.136 0 0 1-.1.04h-.571a.51.51 0 0 0-.377.136c-.086.087-.13.21-.13.371v1.507a.134.134 0 0 1-.046.106.143.143 0 0 1-.106.041h-.73Zm4.092 0a1.66 1.66 0 0 1-.654-.117.907.907 0 0 1-.418-.377c-.098-.173-.147-.395-.147-.665v-1.13h-.46a.164.164 0 0 1-.111-.042.143.143 0 0 1-.041-.106v-.477c0-.043.014-.078.041-.106a.165.165 0 0 1 .112-.041h.459v-.971c0-.043.014-.079.041-.106a.157.157 0 0 1 .106-.041h.683c.043 0 .079.013.106.04a.144.144 0 0 1 .041.107v.971h.736c.043 0 .079.014.106.041a.143.143 0 0 1 .041.106V12a.143.143 0 0 1-.04.106.143.143 0 0 1-.107.041H28.3v1.048c0 .133.026.24.077.318.05.079.137.118.259.118h.453c.043 0 .079.013.106.04a.144.144 0 0 1 .041.107v.512a.144.144 0 0 1-.04.106.143.143 0 0 1-.107.041h-.547Zm2.63.06c-.33 0-.608-.054-.836-.16a1.194 1.194 0 0 1-.518-.453 1.561 1.561 0 0 1-.2-.712 5.382 5.382 0 0 1 0-.53 1.45 1.45 0 0 1 .212-.713c.125-.196.3-.347.524-.453.227-.106.5-.159.818-.159.322 0 .595.053.818.16.228.105.404.256.53.452.126.197.196.434.212.713a5.16 5.16 0 0 1 0 .53 1.517 1.517 0 0 1-.206.712c-.118.196-.29.347-.518.453-.224.106-.503.16-.836.16Zm0-.72c.177 0 .304-.052.383-.158.082-.106.129-.265.14-.477a3.732 3.732 0 0 0 0-.471c-.011-.208-.058-.365-.14-.47-.079-.11-.206-.166-.383-.166-.173 0-.3.055-.383.165-.082.106-.127.263-.135.471a3.732 3.732 0 0 0-.006.236c0 .098.002.176.006.235.008.212.053.371.135.477.083.106.21.159.383.159Zm2.292.66a.143.143 0 0 1-.106-.041.143.143 0 0 1-.041-.106v-2.767c0-.043.014-.078.041-.106a.144.144 0 0 1 .106-.041h.677c.043 0 .078.014.106.041a.143.143 0 0 1 .041.106v.224c.102-.122.236-.224.4-.306.165-.083.36-.124.583-.124.228 0 .428.051.6.153.177.102.315.253.413.454.102.196.153.437.153.724v1.642a.134.134 0 0 1-.047.106.136.136 0 0 1-.1.041h-.742a.157.157 0 0 1-.106-.041.144.144 0 0 1-.041-.106v-1.607c0-.184-.045-.326-.136-.424-.086-.102-.215-.153-.388-.153-.161 0-.29.051-.389.153-.094.098-.141.24-.141.424v1.607a.134.134 0 0 1-.047.106.136.136 0 0 1-.1.041h-.736Z"/><path fill="#ABABAB" d="M17.523 19.478c-.28 0-.513-.039-.698-.118a1.016 1.016 0 0 1-.42-.315.73.73 0 0 1-.152-.412.08.08 0 0 1 .025-.059c.02-.02.042-.03.067-.03h.53c.04 0 .069.008.088.022a.215.215 0 0 1 .06.055.52.52 0 0 0 .092.121c.042.04.095.072.16.097.067.023.15.034.248.034.162 0 .284-.026.366-.076.084-.05.126-.12.126-.206a.192.192 0 0 0-.068-.151.564.564 0 0 0-.218-.11 3.286 3.286 0 0 0-.395-.1 2.563 2.563 0 0 1-.547-.173.859.859 0 0 1-.34-.282.771.771 0 0 1-.119-.437c0-.171.048-.324.143-.458a.97.97 0 0 1 .408-.316 1.54 1.54 0 0 1 .618-.113c.194 0 .363.025.51.075.148.05.273.118.373.202.101.084.177.174.228.27a.583.583 0 0 1 .084.273.096.096 0 0 1-.026.063.085.085 0 0 1-.063.025h-.555a.177.177 0 0 1-.08-.017.156.156 0 0 1-.058-.054c-.017-.062-.062-.115-.135-.16a.486.486 0 0 0-.277-.072.536.536 0 0 0-.29.067c-.068.043-.102.108-.102.198 0 .056.019.105.055.147.04.042.102.079.19.11.089.03.21.063.365.096.255.048.461.108.618.181.157.07.272.163.345.278.073.112.11.253.11.424 0 .191-.055.356-.165.497a.999.999 0 0 1-.445.315c-.191.073-.41.11-.656.11Zm1.791-.042a.102.102 0 0 1-.075-.03.102.102 0 0 1-.03-.075v-2.733c0-.03.01-.056.03-.076.02-.02.045-.03.075-.03h1.964a.102.102 0 0 1 .105.105v.396a.102.102 0 0 1-.105.105h-1.341v.568h1.249c.03 0 .056.011.075.034.02.02.03.044.03.075v.366c0 .028-.01.053-.03.076a.102.102 0 0 1-.075.03h-1.25v.584h1.376c.03 0 .056.01.075.03.02.019.03.044.03.075v.395c0 .03-.01.056-.03.076a.103.103 0 0 1-.075.03h-1.998Zm3.763.042c-.266 0-.495-.043-.685-.13a1.014 1.014 0 0 1-.442-.383 1.288 1.288 0 0 1-.172-.626 15.238 15.238 0 0 1 0-.749c.011-.244.07-.45.176-.618a1 1 0 0 1 .446-.387c.19-.09.416-.134.677-.134.185 0 .356.023.513.071.157.045.294.112.412.202a.907.907 0 0 1 .274.32.9.9 0 0 1 .105.42.069.069 0 0 1-.026.063.086.086 0 0 1-.063.025h-.567a.144.144 0 0 1-.085-.02.198.198 0 0 1-.05-.089c-.04-.149-.104-.25-.193-.303a.586.586 0 0 0-.324-.084.504.504 0 0 0-.366.13c-.09.085-.139.226-.147.425-.008.23-.008.466 0 .707.008.199.057.342.147.429.09.084.212.126.366.126a.607.607 0 0 0 .328-.084c.09-.056.153-.157.19-.303.01-.042.026-.07.045-.084a.144.144 0 0 1 .089-.025h.567c.025 0 .046.008.063.025.02.017.028.038.026.063a.925.925 0 0 1-.379.744 1.347 1.347 0 0 1-.412.202 1.864 1.864 0 0 1-.513.067Zm2.978 0c-.253 0-.474-.04-.665-.122a.954.954 0 0 1-.437-.382c-.104-.174-.155-.394-.155-.66v-1.716c0-.03.01-.056.029-.076.02-.02.045-.03.076-.03h.542c.03 0 .056.01.076.03.02.02.03.045.03.076v1.711c0 .182.043.32.13.412.09.09.214.135.374.135a.486.486 0 0 0 .366-.135c.09-.092.134-.23.134-.412v-1.711c0-.03.01-.056.03-.076a.112.112 0 0 1 .075-.03h.547c.028 0 .052.01.071.03.023.02.034.045.034.076v1.716c0 .266-.052.486-.155.66a.955.955 0 0 1-.438.382c-.188.082-.41.122-.664.122Zm1.92-.042a.103.103 0 0 1-.076-.03.103.103 0 0 1-.03-.075v-2.733c0-.03.01-.056.03-.076.02-.02.045-.03.076-.03h1.143c.362 0 .647.085.854.253.21.165.316.4.316.706 0 .2-.05.368-.148.505a.894.894 0 0 1-.378.311l.58 1.035a.105.105 0 0 1 .013.046c0 .022-.01.043-.03.063a.085.085 0 0 1-.063.025h-.555c-.053 0-.092-.012-.117-.038a.357.357 0 0 1-.055-.075l-.48-.925h-.433v.933c0 .03-.01.056-.03.076a.102.102 0 0 1-.075.03h-.542Zm.647-1.631h.488c.132 0 .23-.032.294-.097a.35.35 0 0 0 .101-.265.367.367 0 0 0-.096-.265c-.062-.067-.162-.1-.299-.1h-.488v.727Zm2.26 1.631a.103.103 0 0 1-.076-.03.103.103 0 0 1-.029-.075v-2.733c0-.03.01-.056.03-.076.019-.02.044-.03.075-.03h1.964c.03 0 .056.01.076.03.02.02.029.045.029.076v.395a.102.102 0 0 1-.105.105h-1.342v.568h1.25c.03 0 .055.011.075.034.02.02.03.044.03.075v.366c0 .028-.01.053-.03.076a.103.103 0 0 1-.076.03h-1.249v.584h1.375c.031 0 .056.01.076.03.02.019.03.044.03.075v.395c0 .03-.01.056-.03.076a.102.102 0 0 1-.076.03h-1.997Zm2.686 0a.102.102 0 0 1-.076-.03.103.103 0 0 1-.03-.075v-2.733c0-.03.01-.056.03-.076.02-.02.045-.03.076-.03h1.093c.275 0 .509.046.702.135a.972.972 0 0 1 .446.387c.104.168.16.377.168.627a14.496 14.496 0 0 1 0 .643c-.011.26-.067.477-.168.648a.905.905 0 0 1-.433.382c-.188.082-.42.122-.694.122h-1.114Zm.647-.605h.446a.71.71 0 0 0 .298-.055c.082-.04.142-.1.181-.18a.73.73 0 0 0 .068-.32c.005-.082.008-.154.008-.219a2.227 2.227 0 0 0 0-.193c0-.065-.003-.136-.008-.215-.006-.19-.056-.33-.152-.416-.092-.09-.231-.135-.416-.135h-.425v1.733Z"/></svg>