<svg xmlns="http://www.w3.org/2000/svg" width="16" height="17" fill="none"><g fill="#000" stroke="#000" stroke-width=".873" clip-path="url(#a)"><path d="m9.687 7.717-2.49 2.49-.884-.886a.413.413 0 0 0-.586 0 .413.413 0 0 0 0 .585l1.178 1.178a.404.404 0 0 0 .583 0l2.782-2.782a.413.413 0 1 0-.583-.585Z"/><path d="M14.398 6.56V4.596c0-.298-.117-.669-.666-.74-.116-.015-.233-.027-.347-.042-.355-.04-.69-.08-1.015-.154-1.27-.279-2.487-.846-3.836-1.785-.181-.125-.326-.227-.531-.227-.206 0-.356.105-.528.224-1.803 1.245-3.434 1.877-5.13 1.982-.519.033-.743.272-.743.8v1.279a283.68 283.68 0 0 0 .01 3.607c.003.423.058.861.159 1.306.236 1.034.779 1.97 1.66 2.855 1.119 1.13 2.523 2.003 4.296 2.672a.846.846 0 0 0 .607-.024c.104-.047.209-.09.313-.136.436-.187.883-.38 1.316-.607 1.432-.758 2.512-1.647 3.303-2.72.696-.945 1.055-1.893 1.1-2.896.01-.199.016-.41.02-.647V9.33l.015-1.997V7.27l-.003-.708Zm-.829.67v.076l-.015 1.947v.071c-.003.233-.01.438-.015.632-.037.83-.344 1.628-.939 2.438-.717.972-1.705 1.785-3.024 2.481-.401.212-.837.399-1.254.58-.104.046-.209.089-.313.135H8c-1.65-.626-2.953-1.433-3.98-2.472-.767-.776-1.239-1.58-1.438-2.46a5.251 5.251 0 0 1-.138-1.129c-.013-1.199-.01-2.416-.01-3.597V4.674c1.84-.122 3.592-.797 5.512-2.122.015-.012.036-.024.058-.04l.058.04c1.42.99 2.773 1.616 4.131 1.917.368.08.74.123 1.098.166.095.012.187.021.28.033V7.23Z"/></g><defs><clipPath id="a"><path fill="#fff" d="M0 .848h16v16H0z"/></clipPath></defs></svg>