<svg xmlns="http://www.w3.org/2000/svg" width="129" height="24" fill="none"><path fill="#FBB104" d="M3.05 18.05c2.234 3.165 6.205 4.732 7.912 5.12 1.551-.155 5.352-1.396 8.145-5.12 3.49-4.654 3.258-9.54 2.56-12.1-.56-2.048-1.94-4.267-2.56-5.12 0 .155-.792.465-3.956.465-3.165 0-4.112-.31-4.19-.465 0 .155-.79.465-3.955.465S3.05.985 3.05.83c-.466.465-1.63 2.141-2.56 5.12-1.164 3.723-.233 8.145 2.56 12.1Z"/><path fill="#0061BB" fill-rule="evenodd" d="M21.575 5.634 17.71 6.88l-6.981 9.076 6.98 1.629 2.281-.845c2.559-4.238 2.309-8.47 1.676-10.79a9.638 9.638 0 0 0-.092-.316Z" clip-rule="evenodd"/><path fill="#0071DB" fill-rule="evenodd" d="M21.6 12.98c-.976.714-3.386 2.096-5.751 2.278-2.42.186-8.3-1.474-10.938-2.327L3.23 18.296c2.26 3 6.07 4.497 7.733 4.874 1.551-.155 5.352-1.396 8.145-5.12 1.275-1.7 2.054-3.432 2.494-5.07Z" clip-rule="evenodd"/><path fill="#0084FF" fill-rule="evenodd" d="M3.054.85c.624 3.112 2.327 10.04 4.185 13.012 2.061 3.299 6.133 6.05 8.653 7.281-1.996 1.376-3.93 1.927-4.93 2.027-1.707-.388-5.678-1.955-7.912-5.12C.257 14.095-.674 9.673.49 5.95 1.42 2.97 2.584 1.295 3.05.83c0 .006.001.013.004.02Z" clip-rule="evenodd"/><path fill="#fff" fill-rule="evenodd" d="M19.983 2.185a4.39 4.39 0 0 0-.45.24c-3.037 2.21-6.077 5.922-8.39 10.242-.369.69-.427.776-.476.704-.03-.045-.266-.44-.523-.877A899.775 899.775 0 0 0 8.49 9.692c-.269-.456-.504-.839-.523-.85-.018-.012-.552.256-1.186.594l-2.775 1.478c-.892.475-1.622.877-1.622.894 0 .016.168.09.374.162 2.108.743 5.382 3.105 7.808 5.632.295.307.404.445.494.433.076-.01.137-.13.284-.348 2.547-3.75 7.326-8.406 10.057-9.798l.36-.18.224-.113a11.826 11.826 0 0 0-.319-1.646c-.36-1.322-1.063-2.714-1.683-3.765Z" clip-rule="evenodd"/><path fill="#000" fill-rule="evenodd" d="M76.666 4.75c0 .038.087.27.193.516.385.888.574 1.344.611 1.477.022.074.119.306.216.515.098.208.194.445.214.525.02.08.112.307.205.504.093.197.203.46.244.586.041.126.217.558.39.96.173.403.36.858.414 1.012.054.154.176.443.27.641.093.198.17.393.17.433 0 .04.098.281.22.537.121.256.22.494.22.529 0 .035.074.216.164.403.09.187.181.409.203.493.021.085.134.357.25.607.117.248.212.477.212.507 0 .03.1.275.22.544.122.268.222.521.222.562 0 .04.073.221.162.403.09.18.192.419.229.529.036.11.134.347.216.525.083.18.168.387.189.461.021.075.14.362.264.637l.225.502h3.769l.184-.393c.102-.216.216-.492.255-.614.04-.122.163-.439.277-.705.113-.266.287-.679.385-.917.099-.24.282-.674.407-.967.125-.293.228-.557.228-.588 0-.03.078-.217.172-.416.096-.198.205-.46.243-.582.039-.12.163-.438.276-.704.114-.267.287-.68.386-.918.098-.238.282-.673.406-.966.126-.293.228-.558.228-.59 0-.03.087-.238.194-.462.106-.223.21-.47.229-.55.02-.078.118-.318.22-.533.102-.215.185-.419.185-.453 0-.033.096-.285.214-.558.54-1.254.67-1.565.67-1.616 0-.03.077-.218.171-.416.094-.2.216-.484.27-.633.055-.149.15-.38.214-.515.063-.134.115-.275.116-.312 0-.054-.47-.066-2.269-.054l-2.27.014-.155.434-.252.704c-.053.15-.19.51-.307.801-.116.291-.211.572-.211.624a.717.717 0 0 1-.084.25 6.648 6.648 0 0 0-.25.65c-.093.272-.238.678-.324.901-.086.224-.2.54-.254.705a2.396 2.396 0 0 1-.137.352 2.41 2.41 0 0 0-.137.352c-.054.164-.168.482-.254.705a29.69 29.69 0 0 0-.33.922c-.095.283-.192.54-.216.57-.022.03-.096.234-.163.454-.146.477-.163.467-.412-.239-.105-.297-.29-.81-.41-1.137-.289-.782-.698-1.903-.783-2.142a55.043 55.043 0 0 0-.271-.732c-.19-.505-.272-.73-.57-1.572-.064-.179-.207-.57-.318-.867a77.278 77.278 0 0 1-.3-.814l-.069-.195-.146-.413-.12-.338-2.305-.001c-1.808-.001-2.305.013-2.305.066Zm17.003 7.116v7.184h4.196V4.683h-4.196v7.183Zm6.735 0v7.184h4.085l.014-3.842.014-3.842.414.542c.228.298.469.594.537.657.068.063.124.136.124.162.001.026.082.14.181.251.098.113.316.382.483.598.167.217.383.494.481.616l.359.453c.099.127.268.339.374.47.107.132.33.417.497.634.167.217.372.466.456.554.083.088.151.181.151.206 0 .026.1.15.221.277.122.126.221.255.221.286 0 .03.044.093.097.138.054.045.22.246.37.446.149.2.292.363.316.363.025 0 .045.032.045.07 0 .04.093.173.207.297.114.125.282.324.373.443l.165.215 1.808.003 1.808.003V4.683h-4.084l-.015 3.693-.013 3.694-.269-.36c-.148-.197-.288-.359-.311-.359-.023 0-.07-.067-.105-.149a1.332 1.332 0 0 0-.255-.333c-.106-.101-.192-.217-.192-.257 0-.041-.02-.074-.045-.074-.024 0-.191-.195-.369-.434-.179-.239-.339-.434-.357-.434-.018 0-.079-.085-.136-.19-.057-.104-.125-.189-.15-.189-.025 0-.102-.083-.171-.184a39.052 39.052 0 0 0-1.146-1.477 32.79 32.79 0 0 1-.386-.481 59.51 59.51 0 0 0-.335-.421 38.6 38.6 0 0 1-.495-.636c-.195-.253-.429-.55-.521-.658a9.266 9.266 0 0 1-.543-.678c-.036-.06-.403-.073-1.973-.073h-1.93v7.183Z" clip-rule="evenodd"/><path fill="#000" d="M121.038 11.115V7.41h1.878c.151 0 .315.044.492.13.177.084.328.215.452.392.127.174.191.395.191.663 0 .271-.066.502-.196.693-.131.187-.29.33-.477.426a1.123 1.123 0 0 1-.522.146H121.5v-.602h1.105c.11 0 .229-.056.356-.166.131-.11.196-.276.196-.497 0-.228-.065-.382-.196-.462a.652.652 0 0 0-.336-.12h-.773v3.102h-.814Zm2.239-1.747.924 1.747h-.893l-.904-1.747h.873Zm-.833 3.956a3.929 3.929 0 0 1-1.561-.311 4.039 4.039 0 0 1-2.144-2.144 3.938 3.938 0 0 1-.311-1.561c0-.556.104-1.076.311-1.561a4.05 4.05 0 0 1 2.144-2.144 3.928 3.928 0 0 1 1.561-.311c.556 0 1.076.103 1.561.31a4.043 4.043 0 0 1 2.144 2.145 3.92 3.92 0 0 1 .311 1.56 3.92 3.92 0 0 1-.311 1.562 4.03 4.03 0 0 1-2.144 2.144 3.925 3.925 0 0 1-1.561.311Zm0-.964a2.95 2.95 0 0 0 1.536-.412c.462-.274.83-.642 1.105-1.104.274-.462.411-.974.411-1.536s-.137-1.075-.411-1.536a3.123 3.123 0 0 0-1.105-1.105 2.951 2.951 0 0 0-1.536-.412c-.562 0-1.074.138-1.536.412-.462.275-.83.643-1.105 1.105a2.954 2.954 0 0 0-.411 1.536c0 .562.137 1.074.411 1.536.275.462.643.83 1.105 1.104a2.95 2.95 0 0 0 1.536.412Z"/><path fill="#0084FF" fill-rule="evenodd" d="M69.03 4.161c-.643.073-1.796.356-2.213.541-.206.093-.409.168-.449.168a.255.255 0 0 0-.146.07 3.39 3.39 0 0 1-.44.27c-.613.333-2.186 1.746-2.186 1.963 0 .027-.071.139-.158.25-.514.657-1.02 1.98-1.17 3.064-.517 3.714 1.438 7.054 4.824 8.242 2.288.802 5.23.456 7.055-.83 1.015-.717 2.27-2.122 1.894-2.122-.041 0-.106-.036-.144-.082-.066-.079-.794-.605-1.116-.806a2.2 2.2 0 0 1-.271-.204c-.064-.059-.134-.107-.156-.107-.022 0-.176-.111-.343-.246-.167-.135-.319-.245-.338-.245-.018 0-.162-.098-.319-.216l-.284-.216-.248.282c-.136.155-.31.336-.385.401l-.356.314c-.608.536-1.389.769-2.457.731l-.7-.024-.514-.252c-2.667-1.306-2.618-5.946.074-6.959 1.525-.574 2.863-.263 4.063.943.459.461.493.469.825.173.161-.143.773-.613 1.42-1.092.08-.058.234-.18.343-.272.11-.092.281-.228.382-.303.508-.378.508-.382.171-.784-.992-1.184-2.445-2.145-3.646-2.411-1.092-.242-2.215-.332-3.013-.241Zm-40.8 7.499v7.226h11.862v-3.49h-7.798v-2.181l3.473-.014 3.473-.014V9.969l-3.473-.014-3.474-.014V7.87h7.689V4.434H28.229v7.226Zm13.784-.003v7.23h4.119V14.795l1.139-.001c1.674-.002 2.795-.147 3.638-.473.196-.076.45-.172.565-.214.65-.239 1.42-.877 2.06-1.707.637-.828.965-2.702.695-3.977-.379-1.794-1.513-3.022-3.33-3.605-1.16-.372-.855-.35-5.056-.371l-3.83-.02v7.23ZM55.999 4.47c-.046.045-.049 14.212-.003 14.33.03.076.265.086 2.087.086h2.053V4.434h-2.05c-1.128 0-2.067.016-2.087.036Zm-6.89 3.585c1.425.582 1.485 2.553.099 3.238-.494.243-.788.285-2.012.285h-1.063V7.86l1.304.022c1.275.02 1.312.025 1.673.172Z" clip-rule="evenodd"/></svg>