<svg xmlns="http://www.w3.org/2000/svg" width="40" height="41" fill="none"><path fill="#0084FF" fill-rule="evenodd" d="M9.06 14.756h12.382a2.888 2.888 0 0 1 2.304 1.149l4.323 5.741 8.333 1.384h.003c.675.11 1.29.455 1.733.976.444.522.688 1.184.686 1.87l-1.176-.003h1.176v5.353c0 .65-.527 1.177-1.176 1.177h-4.854a5.392 5.392 0 0 0-.2-2.353h3.877v1.176h1.177V30.05H36.47v-4.18a.52.52 0 0 0-.124-.338.53.53 0 0 0-.32-.18h-.005L27.22 23.89a1.176 1.176 0 0 1-.747-.453l-4.606-6.117a.527.527 0 0 0-.425-.211H9.049a2.245 2.245 0 0 0-1.183.327c-.354.215-.64.524-.827.892l.003-.006-1.056-.52 1.05.53.003-.004-1.367 2.774a8.987 8.987 0 0 0-.966 4.041v4.907H3.53v1.176h1.176V30.05H5.74a5.34 5.34 0 0 0-.2 2.353H3.53c-.65 0-1.176-.527-1.176-1.177v-6.084a11.34 11.34 0 0 1 1.215-5.095l-.003.005 1.056.52-1.05-.53-.003.005 1.368-2.776a4.598 4.598 0 0 1 4.124-2.515ZM7.859 31.965a1.174 1.174 0 0 1-.916.438H5.54a5.344 5.344 0 0 0 10.586 0h6.08a5.344 5.344 0 0 0 10.587 0h-.264a1.177 1.177 0 1 1 0-2.353h.064a5.345 5.345 0 0 0-10.187 0h-6.48a5.346 5.346 0 0 0-10.187 0h1.202c.465 0 .867.27 1.058.662a2.987 2.987 0 0 0-.142 1.253Zm0 0A1.172 1.172 0 0 0 8 30.712a2.991 2.991 0 0 1 5.824.956 2.99 2.99 0 0 1-5.966.297Zm16.949-1.596A1.172 1.172 0 0 0 24 30.05h-1.594a5.342 5.342 0 0 0-.2 2.353h1.794c.205 0 .4-.053.567-.146a2.991 2.991 0 1 0 .239-1.887Zm0 0a1.176 1.176 0 0 1-.238 1.887 3.003 3.003 0 0 1 .238-1.887Zm-8.88-.319a5.342 5.342 0 0 1 .2 2.353h-.656a1.177 1.177 0 1 1 0-2.353h.456Z" clip-rule="evenodd"/><path fill="#0084FF" d="M4.706 30.05H3.53v1.176h1.176V30.05ZM5.74 30.05a5.34 5.34 0 0 0-.2 2.353h1.402c.37 0 .7-.171.916-.438A3.028 3.028 0 0 1 8 30.712a1.177 1.177 0 0 0-1.058-.662H5.74ZM16.177 31.668c0-.564-.088-1.107-.25-1.618h-.456a1.176 1.176 0 1 0 0 2.353h.656c.033-.24.05-.485.05-.735ZM24.807 30.37a1.172 1.172 0 0 0-.806-.32h-1.594a5.342 5.342 0 0 0-.2 2.353h1.794c.205 0 .4-.053.567-.146a3.003 3.003 0 0 1 .239-1.887ZM32.794 32.403a5.392 5.392 0 0 0-.2-2.353h-.064a1.176 1.176 0 1 0 0 2.353h.264ZM36.471 30.05v1.176h1.177V30.05H36.47Z"/><path fill="#0084FF" fill-rule="evenodd" d="m27.823 8.078-.429 2.027c-.11.52-.576.889-1.108.875l-2.126-.052.747.873a.953.953 0 1 1-1.449 1.238L21.547 10.8c-.622-.727-.089-1.846.867-1.822l3.254.08.66-3.115c.197-.931 1.402-1.194 1.969-.428l1.823 2.463 3.48-1.93c.889-.494 1.916.375 1.577 1.334l-1.316 3.727 2.464 1.281a1.105 1.105 0 0 1-.005 1.963l-2.482 1.276.723 3.613c.186.927-.803 1.644-1.627 1.18l-1.881-1.063a.953.953 0 1 1 .936-1.66l.361.204-.5-2.492c-.096-.485.14-.975.58-1.2l1.643-.845-1.708-.888a1.105 1.105 0 0 1-.532-1.348l.845-2.392-2.247 1.247a1.105 1.105 0 0 1-1.425-.309l-1.183-1.599Z" clip-rule="evenodd"/></svg>