<svg xmlns="http://www.w3.org/2000/svg" width="40" height="41" fill="none"><path fill="#0084FF" stroke="#0084FF" stroke-width=".333" d="M7.255 22.84H7.25l-.19.007h-.006a2.722 2.722 0 0 0-2.514 2.717v3.201l.007.318v.003c.109 2.629 1.536 4.355 3.436 5.416 1.893 1.057 4.259 1.46 6.283 1.46 2.065 0 4.487-.42 6.398-1.526 1.92-1.111 3.327-2.92 3.327-5.675V25.56l-.007-.191v-.006a2.72 2.72 0 0 0-2.708-2.521l-14.02-.002Zm25.496 0h-.006l-8.64.002h-.359l.23.273.17.202c.366.468.62 1.025.723 1.637l.023.139h.141l7.705-.001.098.009c.216.042.38.234.38.463v2.556l-.008.293c-.098 1.765-1.086 2.75-2.221 3.307-1.144.562-2.43.684-3.083.706l-.364.004c-.55-.009-1.838-.092-3.027-.615l-.152-.067-.068.151a6.679 6.679 0 0 1-.99 1.583l-.138.163.192.093c1.365.666 2.921.944 4.29.944 1.66 0 3.607-.401 5.144-1.422 1.545-1.026 2.67-2.674 2.67-5.138V25.558l-.008-.2v-.007a2.722 2.722 0 0 0-2.505-2.503h-.006l-.19-.008ZM8.99 32.485c-.75-.433-1.299-.953-1.661-1.566-.362-.612-.544-1.327-.544-2.158v-3.188l.012-.112a.482.482 0 0 1 .126-.232.482.482 0 0 1 .23-.126l.111-.011 14.004.001.099.009c.215.043.38.235.38.464v3.192l-.009.293c-.11 1.962-1.338 3.097-2.803 3.76-1.47.666-3.159.843-4.12.886l-.55.013-.43-.007c-1.859-.06-3.605-.499-4.845-1.218Zm12.452-19.069c0-3.975-3.212-7.2-7.176-7.2-3.965 0-7.177 3.225-7.177 7.2s3.212 7.2 7.177 7.2c3.964 0 7.176-3.225 7.176-7.2Zm12.745 1.279c0-3.27-2.642-5.921-5.901-5.921-3.26 0-5.902 2.652-5.902 5.92 0 3.27 2.642 5.922 5.902 5.922 3.26 0 5.901-2.652 5.901-5.921ZM9.334 13.416c0-2.73 2.212-4.948 4.93-4.948 2.72 0 4.932 2.219 4.932 4.948 0 2.73-2.212 4.948-4.931 4.948-2.72 0-4.931-2.219-4.931-4.948Zm15.294 1.279a3.668 3.668 0 0 1 3.657-3.67 3.668 3.668 0 0 1 3.656 3.67 3.668 3.668 0 0 1-3.656 3.67 3.668 3.668 0 0 1-3.657-3.67Z"/></svg>