<svg xmlns="http://www.w3.org/2000/svg" width="40" height="41" fill="none"><path fill="#0084FF" d="M32.675 11.75h-3.4a11.85 11.85 0 0 0-17.3 0h-4.65A4.825 4.825 0 0 0 2.5 16.577v14.1A4.825 4.825 0 0 0 7.325 35.5h25.35a4.825 4.825 0 0 0 4.825-4.825v-14.1a4.825 4.825 0 0 0-4.825-4.825ZM35 30.677A2.325 2.325 0 0 1 32.675 33H7.325A2.325 2.325 0 0 1 5 30.676v-14.1a2.325 2.325 0 0 1 2.325-2.325H12.5a1.25 1.25 0 0 0 .95-.438 9.351 9.351 0 0 1 14.275 0 1.25 1.25 0 0 0 1.025.438h3.962A2.325 2.325 0 0 1 35 16.576v14.1Z"/><path fill="#0084FF" d="M20.625 14.25a8.125 8.125 0 1 0 8.125 8.125 8.137 8.137 0 0 0-8.125-8.124Zm0 13.75a5.625 5.625 0 1 1 5.625-5.625A5.637 5.637 0 0 1 20.625 28ZM7.5 10.5H10A1.25 1.25 0 0 0 10 8H7.5a1.25 1.25 0 1 0 0 2.5ZM31.25 19.25a1.25 1.25 0 1 0 0-2.5 1.25 1.25 0 0 0 0 2.5Z"/></svg>