<svg xmlns="http://www.w3.org/2000/svg" width="40" height="41" fill="none"><path fill="#0084FF" d="M5 10.917A5.417 5.417 0 0 1 10.417 5.5h19.166A5.417 5.417 0 0 1 35 10.917v19.166a5.417 5.417 0 0 1-5.417 5.417H10.417A5.417 5.417 0 0 1 5 30.083V10.917ZM10.417 8A2.917 2.917 0 0 0 7.5 10.917v19.166A2.917 2.917 0 0 0 10.417 33h3.75V8h-3.75Zm12.916 25v-6.667h-6.666V33h6.666Zm2.5 0h3.75a2.917 2.917 0 0 0 2.917-2.917v-3.75h-6.667V33Zm0-9.167H32.5v-6.666h-6.667v6.666Zm-2.5-6.666h-6.666v6.666h6.666v-6.666Zm0-2.5V8h-6.666v6.667h6.666Zm2.5 0H32.5v-3.75A2.917 2.917 0 0 0 29.583 8h-3.75v6.667Z"/></svg>