<svg xmlns="http://www.w3.org/2000/svg" width="40" height="41" fill="none"><path fill="#0084FF" d="M23.325 18.834c0 1.395-.858 2.59-2.075 3.087v3.996a1.25 1.25 0 0 1-2.5 0v-3.99a3.334 3.334 0 1 1 4.575-3.093Z"/><path fill="#0084FF" d="M6.25 8.834c-.69 0-1.25.56-1.25 1.25v8.75c0 8.335 4.93 14.459 14.542 18.246.294.116.622.116.916 0C30.071 33.293 35 27.169 35 18.834v-8.75c0-.69-.56-1.25-1.25-1.25-4.439 0-8.763-1.573-13-4.75a1.25 1.25 0 0 0-1.5 0c-4.237 3.177-8.561 4.75-13 4.75Zm1.25 10v-7.537c4.296-.254 8.468-1.816 12.5-4.667 4.032 2.85 8.204 4.413 12.5 4.667v7.537c0 7.092-4.089 12.298-12.5 15.736-8.411-3.438-12.5-8.644-12.5-15.736Z"/></svg>