<svg xmlns="http://www.w3.org/2000/svg" width="32" height="32" fill="none"><path fill="#0084FF" d="M19.203 28H10.25a3.754 3.754 0 0 1-3.75-3.75V11.547a3.754 3.754 0 0 1 3.75-3.75h8.953a3.754 3.754 0 0 1 3.75 3.75V24.25a3.754 3.754 0 0 1-3.75 3.75ZM10.25 9.672a1.877 1.877 0 0 0-1.875 1.875V24.25c0 1.034.841 1.875 1.875 1.875h8.953a1.877 1.877 0 0 0 1.875-1.875V11.547a1.877 1.877 0 0 0-1.875-1.875H10.25Zm16.453 12.234V7.75A3.754 3.754 0 0 0 22.953 4H12.547a.937.937 0 1 0 0 1.875h10.406c1.034 0 1.875.841 1.875 1.875v14.156a.937.937 0 1 0 1.875 0Z"/></svg>