<svg xmlns="http://www.w3.org/2000/svg" width="18" height="18" fill="none">
    <g fill="#fff" clip-path="url(#a)">
        <path
            d="M9 0C4.037 0 0 4.037 0 9s4.037 9 9 9 9-4.037 9-9-4.037-9-9-9Zm0 16.364c-4.06 0-7.364-3.304-7.364-7.364C1.636 4.94 4.94 1.636 9 1.636c4.06 0 7.364 3.304 7.364 7.364 0 4.06-3.304 7.364-7.364 7.364Z"/>
        <path
            d="M11.546 6.934 9.818 8.66v-4.57a.818.818 0 1 0-1.636 0v4.57L6.455 6.934A.818.818 0 0 0 5.297 8.09l3.124 3.124a.816.816 0 0 0 1.157 0l3.125-3.124a.818.818 0 0 0-1.157-1.157ZM10.636 13.09H7.364a.818.818 0 0 0 0 1.637h3.272a.818.818 0 1 0 0-1.636Z"/>
    </g>
    <defs>
        <clipPath id="a">
            <path fill="#fff" d="M0 0h18v18H0z"/>
        </clipPath>
    </defs>
</svg>
