<svg xmlns="http://www.w3.org/2000/svg" width="20" height="19" fill="none"><g clip-path="url(#a)"><path fill="#ABABAB" d="m4.33 2.211-1.12 1.12 1.812 1.812C2.91 6.84 1.917 9.038 1.854 9.188L1.72 9.5l.133.312c.105.247 2.65 6.021 8.645 6.021a8.433 8.433 0 0 0 4.146-1.067l2.023 2.023 1.12-1.12L4.328 2.211Zm6.168.956c-.958 0-1.82.158-2.606.408l1.303 1.303a6.93 6.93 0 0 1 1.303-.128c4.272 0 6.467 3.632 7.039 4.747-.233.446-.743 1.31-1.542 2.182l1.13 1.128c1.33-1.439 1.967-2.875 2.018-2.995l.133-.312-.133-.312c-.105-.247-2.65-6.021-8.645-6.021ZM6.154 6.275l1.623 1.623A3.107 3.107 0 0 0 7.332 9.5a3.17 3.17 0 0 0 3.167 3.167c.586 0 1.132-.165 1.601-.446l1.366 1.366a6.85 6.85 0 0 1-2.967.663c-4.272 0-6.467-3.632-7.039-4.747.33-.63 1.212-2.09 2.694-3.228Zm4.513.075 2.981 2.981a3.154 3.154 0 0 0-2.981-2.98ZM8.974 9.095l1.93 1.93c-.13.034-.265.058-.405.058-.874 0-1.584-.71-1.584-1.583 0-.14.024-.275.059-.405Z"/></g><defs><clipPath id="a"><path fill="#fff" d="M.999 0h19v19h-19z"/></clipPath></defs></svg>