<svg xmlns="http://www.w3.org/2000/svg" width="20" height="19" fill="none"><g clip-path="url(#a)"><path fill="#ABABAB" d="M10.498 3.167C4.165 3.167 1.79 9.5 1.79 9.5s2.375 6.333 8.709 6.333c6.333 0 8.708-6.333 8.708-6.333s-2.375-6.333-8.709-6.333Zm0 1.583c4.177 0 6.29 3.378 6.974 4.747-.685 1.36-2.813 4.753-6.974 4.753-4.176 0-6.289-3.378-6.973-4.747.686-1.36 2.813-4.753 6.973-4.753Zm0 1.583a3.167 3.167 0 1 0 0 6.334 3.167 3.167 0 0 0 0-6.334Zm0 1.584a1.583 1.583 0 1 1 .001 3.165 1.583 1.583 0 0 1 0-3.165Z"/></g><defs><clipPath id="a"><path fill="#fff" d="M.999 0h19v19h-19z"/></clipPath></defs></svg>