<svg xmlns="http://www.w3.org/2000/svg" width="18" height="19" fill="none"><path fill="#000" d="M16 .799h-1.5a.5.5 0 1 0 0 1H16c.552 0 1 .449 1 1v1.5a.5.5 0 1 0 1 0v-1.5c0-1.103-.897-2-2-2ZM.5 4.799a.5.5 0 0 0 .5-.5v-1.5c0-.551.448-1 1-1h1.5a.5.5 0 1 0 0-1H2c-1.103 0-2 .897-2 2v1.5a.5.5 0 0 0 .5.5ZM17.5 14.799a.5.5 0 0 0-.5.5v1.5c0 .551-.448 1-1 1h-1.5a.5.5 0 1 0 0 1H16c1.103 0 2-.897 2-2v-1.5a.5.5 0 0 0-.5-.5ZM3.5 17.799H2c-.552 0-1-.449-1-1v-1.5a.5.5 0 1 0-1 0v1.5c0 1.103.897 2 2 2h1.5a.5.5 0 1 0 0-1ZM7.5 3.799a.5.5 0 0 0-.5.5v11a.5.5 0 1 0 1 0v-11a.5.5 0 0 0-.5-.5ZM14.5 3.799a.5.5 0 0 0-.5.5v11a.5.5 0 1 0 1 0v-11a.5.5 0 0 0-.5-.5ZM3.5 3.799a.5.5 0 0 0-.5.5v8a.5.5 0 1 0 1 0v-8a.5.5 0 0 0-.5-.5ZM5.5 3.799a.5.5 0 0 0-.5.5v8a.5.5 0 1 0 1 0v-8a.5.5 0 0 0-.5-.5ZM9.5 3.799a.5.5 0 0 0-.5.5v8a.5.5 0 1 0 1 0v-8a.5.5 0 0 0-.5-.5ZM12.5 3.799a.5.5 0 0 0-.5.5v8a.5.5 0 1 0 1 0v-8a.5.5 0 0 0-.5-.5ZM12.5 13.799a.5.5 0 0 0-.5.5v1a.5.5 0 1 0 1 0v-1a.5.5 0 0 0-.5-.5ZM9.5 13.799a.5.5 0 0 0-.5.5v1a.5.5 0 1 0 1 0v-1a.5.5 0 0 0-.5-.5ZM5.5 13.799a.5.5 0 0 0-.5.5v1a.5.5 0 1 0 1 0v-1a.5.5 0 0 0-.5-.5ZM3.5 13.799a.5.5 0 0 0-.5.5v1a.5.5 0 1 0 1 0v-1a.5.5 0 0 0-.5-.5Z"/><path fill="#D32F2F" d="M17.625 8.799H.375c-.207 0-.375.224-.375.5s.168.5.375.5h17.25c.207 0 .375-.224.375-.5s-.168-.5-.375-.5Z"/></svg>