<svg xmlns="http://www.w3.org/2000/svg" width="18" height="18" fill="none"><path fill="#666" d="M13.25 1A2.261 2.261 0 0 0 11 3.25c0 .143.016.283.043.419L5.69 6.79A2.227 2.227 0 0 0 4.25 6.25 2.261 2.261 0 0 0 2 8.5a2.261 2.261 0 0 0 2.25 2.25c.55 0 1.049-.208 1.441-.54l5.352 3.12a2.218 2.218 0 0 0-.043.42A2.261 2.261 0 0 0 13.25 16a2.261 2.261 0 0 0 2.25-2.25 2.261 2.261 0 0 0-2.25-2.25c-.55 0-1.049.21-1.441.542L6.458 8.919c.026-.136.042-.276.042-.419 0-.143-.016-.283-.042-.419l5.35-3.122c.393.333.893.541 1.442.541a2.261 2.261 0 0 0 2.25-2.25A2.261 2.261 0 0 0 13.25 1Zm0 1.5c.423 0 .75.327.75.75s-.327.75-.75.75a.739.739 0 0 1-.75-.75c0-.423.327-.75.75-.75Zm-9 5.25c.423 0 .75.327.75.75s-.327.75-.75.75a.739.739 0 0 1-.75-.75c0-.423.327-.75.75-.75Zm9 5.25c.423 0 .75.327.75.75s-.327.75-.75.75a.739.739 0 0 1-.75-.75c0-.423.327-.75.75-.75Z"/></svg>