<svg xmlns="http://www.w3.org/2000/svg" width="15" height="15" fill="none"><g fill="#95A0AA" clip-path="url(#a)"><path d="M8.874 2.61V1.523h.496a.59.59 0 0 0 0-1.182H6.558a.59.59 0 0 0 0 1.182h.496V2.61a5.91 5.91 0 0 0-4.99 5.83c0 3.254 2.647 5.901 5.9 5.901 3.254 0 5.9-2.647 5.9-5.9a5.91 5.91 0 0 0-4.99-5.831Zm-.91 10.55a4.725 4.725 0 0 1-4.719-4.72 4.725 4.725 0 0 1 4.72-4.719 4.725 4.725 0 0 1 4.718 4.72 4.725 4.725 0 0 1-4.719 4.719Z"/><path d="M8.555 8.195V5.412a.59.59 0 0 0-1.182 0v3.124c0 .096.038.188.106.256l1.653 1.646a.59.59 0 0 0 .834-.838L8.555 8.195Z"/></g><defs><clipPath id="a"><path fill="#fff" d="M.964.341h14v14h-14z"/></clipPath></defs></svg>