<svg xmlns="http://www.w3.org/2000/svg" width="20" height="20" fill="none"><path fill="#0084FF" stroke="#0084FF" stroke-width=".7" d="M12.108 8.587 8.995 11.7 7.89 10.592a.516.516 0 0 0-.733 0 .516.516 0 0 0 0 .732l1.473 1.472a.505.505 0 0 0 .728 0l3.477-3.477a.516.516 0 0 0 0-.732.511.511 0 0 0-.728 0Z"/><path fill="#0084FF" stroke="#0084FF" stroke-width=".7" d="M17.996 7.142V4.684c0-.372-.145-.836-.832-.924-.145-.019-.291-.034-.433-.053-.445-.05-.863-.1-1.269-.192-1.587-.349-3.109-1.058-4.796-2.231C10.44 1.127 10.26 1 10.003 1s-.445.13-.66.28C7.09 2.836 5.05 3.626 2.93 3.756c-.648.043-.928.342-.928 1.001v1.599c-.004 1.476-.004 3.005.012 4.508.003.53.072 1.077.199 1.633.295 1.292.974 2.461 2.074 3.57 1.4 1.41 3.155 2.503 5.37 3.338.1.039.216.058.334.058.146 0 .3-.03.426-.088.13-.058.26-.111.391-.169a23.374 23.374 0 0 0 1.645-.759c1.79-.947 3.14-2.059 4.128-3.4.87-1.181 1.32-2.366 1.377-3.62.011-.249.019-.513.023-.808v-.016L18 8.108v-.081l-.004-.885Zm-1.035.835v.096l-.02 2.434v.089a40.62 40.62 0 0 1-.018.79c-.046 1.038-.43 2.035-1.173 3.047-.897 1.215-2.132 2.231-3.78 3.102-.503.264-1.047.498-1.568.724-.13.058-.261.111-.391.169h-.012c-2.062-.782-3.692-1.79-4.976-3.09-.958-.97-1.549-1.974-1.798-3.075a6.564 6.564 0 0 1-.172-1.41c-.016-1.5-.012-3.021-.012-4.497V4.784c2.3-.154 4.49-.997 6.89-2.653.018-.015.045-.03.072-.05l.073.05c1.775 1.238 3.465 2.02 5.164 2.396.46.1.924.153 1.372.207.12.015.234.027.35.042v3.201Z"/></svg>