<svg xmlns="http://www.w3.org/2000/svg" width="21" height="20" fill="none"><path fill="#0084FF" stroke="#0084FF" stroke-width=".4" d="M5.383 6.59c.956 0 1.863-.39 2.522-1.052a3.565 3.565 0 0 0 2.522 1.051c.956 0 1.862-.388 2.521-1.051a3.565 3.565 0 0 0 2.522 1.051c1.264 0 2.443-.68 3.077-1.776a.642.642 0 1 0-1.11-.643 2.278 2.278 0 0 1-1.967 1.136 2.278 2.278 0 0 1-1.966-1.136.642.642 0 0 0-1.111 0 2.277 2.277 0 0 1-1.966 1.136A2.28 2.28 0 0 1 8.461 4.17a.641.641 0 0 0-1.11 0 2.278 2.278 0 0 1-1.967 1.136A2.278 2.278 0 0 1 3.417 4.17a.642.642 0 0 0-1.11.643 3.565 3.565 0 0 0 3.076 1.776ZM18.313 8.641a.642.642 0 0 0-.877.234 2.278 2.278 0 0 1-1.966 1.136 2.278 2.278 0 0 1-1.966-1.136.642.642 0 0 0-1.111 0 2.277 2.277 0 0 1-1.966 1.136A2.28 2.28 0 0 1 8.46 8.875a.641.641 0 0 0-1.11 0 2.278 2.278 0 0 1-1.967 1.136 2.278 2.278 0 0 1-1.966-1.136.642.642 0 1 0-1.11.643 3.565 3.565 0 0 0 3.077 1.776c.955 0 1.862-.389 2.521-1.051a3.565 3.565 0 0 0 2.522 1.051c.956 0 1.862-.388 2.521-1.051a3.565 3.565 0 0 0 2.522 1.051c1.264 0 2.443-.68 3.077-1.776a.642.642 0 0 0-.235-.877ZM18.313 13.347a.642.642 0 0 0-.877.234 2.278 2.278 0 0 1-1.966 1.136 2.278 2.278 0 0 1-1.966-1.136.642.642 0 0 0-1.111 0 2.277 2.277 0 0 1-1.966 1.136 2.28 2.28 0 0 1-1.967-1.136.642.642 0 0 0-1.11 0 2.278 2.278 0 0 1-1.967 1.136 2.278 2.278 0 0 1-1.966-1.136.642.642 0 1 0-1.11.643A3.565 3.565 0 0 0 5.383 16c.955 0 1.862-.388 2.521-1.051A3.565 3.565 0 0 0 10.427 16c.956 0 1.862-.388 2.521-1.051A3.565 3.565 0 0 0 15.47 16c1.264 0 2.443-.68 3.077-1.776a.642.642 0 0 0-.235-.877Z"/></svg>