<svg xmlns="http://www.w3.org/2000/svg" width="20" height="20" fill="none"><path fill="#0084FF" d="M12.25 9.714V8.571H8.875v1.143h3.375Z"/><path fill="#0084FF" fill-rule="evenodd" d="M11.33 3.85h1.706c.647 0 1.308.282 1.953.756.645.475 1.285 1.15 1.891 1.956.464.616.867 1.268 1.116 1.796.131.278.222.526.259.74.04.24.019.499-.105.704-.13.215-.359.348-.678.348h-.004l-.174-.005c-.088-.004-.201-.014-.42-.034-.482-.043-.853-.047-1.212.012l.025.055c.163-.028.33-.043.5-.043 1.639 0 2.963 1.349 2.963 3.008 0 1.658-1.324 3.007-2.962 3.007-1.639 0-2.963-1.349-2.963-3.007 0-.971.454-1.835 1.158-2.385l-.032-.069c-.191.173-.42.422-.728.787l-.497.602-.235.282h-.001c-.835.98-1.424 1.462-2.205 1.501h-.004l-.101.003H6.69c-.32 1.311-1.485 2.286-2.877 2.286C2.174 16.15.85 14.8.85 13.143c0-1.66 1.324-3.008 2.963-3.008 1.392 0 2.558.975 2.876 2.286h.214c-.055-.398-.252-.84-.693-1.347l-.105-.116a4.3 4.3 0 0 0-.196-.199c-.378-.357-.714-.574-1.094-.704-.382-.132-.82-.18-1.406-.184h-.323c-.654 0-1.202-.456-1.553-.99C1.182 8.348.99 7.684 1.1 7.203c.058-.258.188-.437.376-.547.18-.106.4-.137.623-.139a3.77 3.77 0 0 1 .597.055h.002l.646.106c.065.01.1.013.121.014h.014c1.159-.02 2.057.135 2.884.434h.003l.195.076c.111.044.236.094.347.14h.002c.12.049.223.091.276.11l.012.005.07-.061c.796-.682 1.346-.986 1.969-1.116h.002l.107-.02a6.737 6.737 0 0 1 2.157-.008l-.544-.86V5.39c-.067-.108-.117-.19-.157-.259L10.8 5.13l-.064-.114a1.554 1.554 0 0 1-.05-.101.82.82 0 0 1-.067-.232.782.782 0 0 1 .109-.522.67.67 0 0 1 .508-.306l.008-.001.087-.004Zm-7.517 7.728c-.847 0-1.538.698-1.538 1.565 0 .866.69 1.564 1.538 1.564.592 0 1.107-.341 1.364-.843H3.1V12.42h2.077a1.535 1.535 0 0 0-1.364-.843Zm12.52.007.893 1.944-1.29.612-.923-2.008a1.574 1.574 0 0 0-.363 1.01c0 .866.69 1.564 1.538 1.564.847 0 1.537-.698 1.537-1.565 0-.815-.612-1.482-1.391-1.557Zm-4.018-6.442h.721l.084.003c.737.062 1.781.918 2.746 2.201l.123.166c.322.443.6.893.79 1.267l.013.027-.2-.012c-.823-.041-1.461.049-2.274.392-.57.24-.973.619-1.745 1.546l-.524.636c-.717.855-1.14 1.202-1.47 1.202H8.194l-.003-.09c-.046-.76-.377-1.567-1.155-2.407a5.59 5.59 0 0 0-.255-.259C5.708 8.8 4.792 8.57 3.24 8.578h-.154c-.213 0-.484-.367-.634-.684l-.024-.054.059.008.59.098c.173.027.26.037.352.039l.297-.002c.893.006 1.578.133 2.21.361.08.03.249.097.418.166l.35.14.11.041c.393.128.727.114 1.049-.116.034-.024.066-.05.098-.078.77-.678 1.157-.885 1.601-.963.807-.14 1.658-.066 2.516.15.203.052.372.102.58.168l.093.03.14.04.093.018a.222.222 0 0 0 .058-.002l.184-.033c.17-.079.197-.092.294-.283l.067-.139V7.44c-.001-.208-.004-.251-.04-.32l-.032-.056c-.238-.392-.473-.77-.725-1.171l-.475-.75Z" clip-rule="evenodd"/></svg>