<svg xmlns="http://www.w3.org/2000/svg" width="21" height="20" fill="none"><g fill="#0084FF" fill-rule="evenodd" clip-path="url(#a)" clip-rule="evenodd"><path d="M10.941 10.776H2.53l-.122.003-.007.001c-.896.066-1.6.816-1.6 1.73L.8 14.428l.004.195v.004c.067 1.618.949 2.682 2.113 3.333 1.155.645 2.593.888 3.818.888 1.25 0 2.722-.253 3.89-.929 1.176-.681 2.045-1.796 2.046-3.491V12.51l-.005-.121v-.008a1.732 1.732 0 0 0-1.725-1.605Zm1.53 3.7V12.51m-5.992 4.783c-1.103-.035-2.133-.296-2.859-.717-.438-.253-.754-.554-.96-.904-.208-.35-.313-.76-.313-1.244V12.52l.006-.056a.19.19 0 0 1 .047-.085.191.191 0 0 1 .084-.047l.055-.006h8.393l.049.005a.185.185 0 0 1 .143.18v1.913l-.005.174c-.064 1.126-.765 1.78-1.624 2.169-.864.391-1.861.496-2.434.522l-.326.008-.254-.004h-.002Z"/><path d="m17.953 10.78-.122-.005-5.621.001.376.448c.21.268.355.586.413.936l.028.167h4.788l.048.004a.184.184 0 0 1 .143.179v1.531l-.005.173c-.056 1.014-.62 1.577-1.277 1.9-.666.327-1.42.4-1.808.413l-.215.002c-.326-.005-1.082-.055-1.777-.36l-.182-.08-.08.181c-.154.343-.35.65-.58.926l-.165.196.23.112c.835.407 1.784.577 2.618.577 1.01 0 2.198-.244 3.141-.87.953-.633 1.647-1.652 1.647-3.167V12.51l-.005-.128v-.008a1.733 1.733 0 0 0-1.595-1.594Zm-4.757 1.347Zm-.961 5.197c.062.03.124.06.187.087.756.33 1.596.47 2.343.47-.81 0-1.727-.166-2.53-.557ZM11.141 5.22C11.141 2.78 9.17.8 6.735.8A4.413 4.413 0 0 0 2.33 5.22c0 2.44 1.971 4.42 4.405 4.42a4.413 4.413 0 0 0 4.406-4.42Zm-7.264 0a2.867 2.867 0 0 1 2.858-2.868 2.867 2.867 0 0 1 2.86 2.869 2.867 2.867 0 0 1-2.86 2.869 2.867 2.867 0 0 1-2.858-2.87Zm-1.347 0ZM18.788 5.988a3.647 3.647 0 0 0-3.64-3.653 3.647 3.647 0 0 0-3.642 3.653 3.647 3.647 0 0 0 3.641 3.653 3.647 3.647 0 0 0 3.641-3.653Zm-5.735 0a2.1 2.1 0 0 1 2.094-2.102 2.1 2.1 0 0 1 2.094 2.102 2.1 2.1 0 0 1-2.094 2.102 2.1 2.1 0 0 1-2.094-2.102Zm5.535 0a3.447 3.447 0 0 1-3.44 3.453 3.447 3.447 0 0 0 0 0c1.9 0 3.44-1.546 3.44-3.453Z"/></g><defs><clipPath id="a"><path fill="#fff" d="M.5 0h20v20H.5z"/></clipPath></defs></svg>