<svg xmlns="http://www.w3.org/2000/svg" width="21" height="20" fill="none"><path fill="#0084FF" fill-rule="evenodd" d="M17.5 4h-14a1 1 0 0 0-1 1v10a1 1 0 0 0 1 1h14a1 1 0 0 0 1-1V5a1 1 0 0 0-1-1Zm-14-1a2 2 0 0 0-2 2v10a2 2 0 0 0 2 2h14a2 2 0 0 0 2-2V5a2 2 0 0 0-2-2h-14Zm.584 8.794a.488.488 0 0 1 0-.69l1.035-1.035-1.035-1.034a.488.488 0 0 1 .69-.69L5.809 9.38l1.034-1.035a.488.488 0 0 1 .69.69l-1.035 1.034 1.035 1.035a.488.488 0 0 1-.69.69L5.81 10.759l-1.035 1.035c-.19.19-.5.19-.69 0Zm4.693 0a.488.488 0 0 1 0-.69l1.035-1.035-1.035-1.034a.488.488 0 0 1 .69-.69l1.035 1.035 1.034-1.035a.488.488 0 0 1 .69.69l-1.035 1.034 1.035 1.035a.488.488 0 1 1-.69.69l-1.034-1.035-1.035 1.035c-.19.19-.5.19-.69 0Zm4.93 0a.488.488 0 0 1 0-.69l1.034-1.035-1.035-1.034a.488.488 0 1 1 .69-.69l1.035 1.035 1.034-1.035a.488.488 0 1 1 .69.69l-1.035 1.034 1.035 1.035a.488.488 0 0 1-.69.69l-1.034-1.035-1.035 1.035c-.19.19-.5.19-.69 0Z" clip-rule="evenodd"/><path fill="#0084FF" d="m4.084 11.104.177.177-.177-.177Zm0 .69.177-.177-.177.177Zm1.035-1.725.177.177.176-.177-.176-.176-.177.176ZM4.084 9.035l-.177.176.177-.176Zm0-.69.177.177-.177-.177Zm.69 0-.177.177.177-.177ZM5.809 9.38l-.177.176.177.177.176-.177-.176-.176Zm1.724-.345-.177-.177.177.177Zm-1.035 1.034-.176-.176-.177.176.177.177.176-.177Zm1.035 1.035-.177.177.177-.177Zm0 .69.177.176-.177-.176Zm-.69 0-.177.176.177-.176ZM5.81 10.759l.176-.177-.176-.177-.177.177.177.177Zm-1.035 1.035.177.176-.177-.176Zm4.003-.69.177.177-.177-.177Zm0 .69.177-.177-.177.177Zm1.035-1.725.177.177.176-.177-.176-.176-.177.176ZM8.777 9.035l.177-.177-.177.177Zm0-.69.177.177-.177-.177Zm.69 0-.177.177.177-.177Zm1.035 1.035-.177.176.177.177.176-.177-.176-.176Zm1.034-1.035.177.177-.177-.177Zm.69 0-.177.177.177-.177Zm0 .69.177.176-.177-.176Zm-1.035 1.034-.176-.176-.177.176.177.177.176-.177Zm1.035 1.725-.177-.177.177.177Zm-1.724-1.035.176-.177-.176-.177-.177.177.177.177Zm-1.035 1.035-.177-.177.177.177Zm4.24-.69-.178-.177.177.177Zm1.034-1.035.177.177.176-.177-.176-.176-.177.176Zm-1.035-1.724.177.177-.177-.177Zm.69 0 .177-.177-.177.177Zm1.035 1.035-.177.176.177.177.176-.177-.176-.176Zm1.034-1.035.177.177-.177-.177Zm.69 0-.177.177.177-.177Zm0 .69.177.176-.177-.176Zm-1.035 1.034-.176-.176-.177.176.177.177.176-.177Zm1.035 1.725-.177-.177.177.177Zm-1.724-1.035.176-.177-.176-.177-.177.177.177.177Zm-1.035 1.035.177.176-.177-.176ZM3.5 4.25h14v-.5h-14v.5ZM2.75 5a.75.75 0 0 1 .75-.75v-.5c-.69 0-1.25.56-1.25 1.25h.5Zm0 10V5h-.5v10h.5Zm.75.75a.75.75 0 0 1-.75-.75h-.5c0 .69.56 1.25 1.25 1.25v-.5Zm14 0h-14v.5h14v-.5Zm.75-.75a.75.75 0 0 1-.75.75v.5c.69 0 1.25-.56 1.25-1.25h-.5Zm0-10v10h.5V5h-.5Zm-.75-.75a.75.75 0 0 1 .75.75h.5c0-.69-.56-1.25-1.25-1.25v.5ZM1.75 5c0-.966.784-1.75 1.75-1.75v-.5A2.25 2.25 0 0 0 1.25 5h.5Zm0 10V5h-.5v10h.5Zm1.75 1.75A1.75 1.75 0 0 1 1.75 15h-.5a2.25 2.25 0 0 0 2.25 2.25v-.5Zm14 0h-14v.5h14v-.5ZM19.25 15a1.75 1.75 0 0 1-1.75 1.75v.5A2.25 2.25 0 0 0 19.75 15h-.5Zm0-10v10h.5V5h-.5ZM17.5 3.25c.966 0 1.75.784 1.75 1.75h.5a2.25 2.25 0 0 0-2.25-2.25v.5Zm-14 0h14v-.5h-14v.5Zm.407 7.677a.738.738 0 0 0 0 1.043l.354-.353a.238.238 0 0 1 0-.336l-.354-.354Zm1.035-1.034-1.035 1.034.354.354 1.035-1.035-.354-.353ZM3.907 9.21l1.035 1.035.354-.353L4.26 8.858l-.354.353Zm0-1.043a.738.738 0 0 0 0 1.043l.354-.353a.238.238 0 0 1 0-.336l-.354-.354Zm1.044 0a.738.738 0 0 0-1.044 0l.354.354a.238.238 0 0 1 .336 0l.354-.354Zm1.034 1.035L4.951 8.168l-.354.354 1.035 1.034.353-.353Zm.681-1.035L5.632 9.203l.353.353L7.02 8.522l-.354-.354Zm1.044 0a.738.738 0 0 0-1.044 0l.354.354a.238.238 0 0 1 .336 0l.354-.354Zm0 1.043a.738.738 0 0 0 0-1.043l-.354.354a.238.238 0 0 1 0 .336l.354.353Zm-1.035 1.035L7.71 9.211l-.354-.353-1.034 1.035.353.353Zm1.035.681L6.675 9.893l-.353.353 1.034 1.035.354-.354Zm0 1.043a.738.738 0 0 0 0-1.043l-.354.354a.238.238 0 0 1 0 .336l.354.353Zm-1.044 0a.738.738 0 0 0 1.044 0l-.354-.353a.238.238 0 0 1-.336 0l-.354.353Zm-1.034-1.034 1.034 1.034.354-.353-1.035-1.035-.353.354ZM4.95 11.97l1.034-1.034-.353-.354-1.035 1.035.354.353Zm-1.044 0a.738.738 0 0 0 1.044 0l-.354-.353a.238.238 0 0 1-.336 0l-.354.353ZM8.6 10.928a.738.738 0 0 0 0 1.043l.354-.353a.238.238 0 0 1 0-.336l-.354-.354Zm1.035-1.034L8.6 10.927l.354.354 1.035-1.035-.354-.353ZM8.6 9.21l1.035 1.035.354-.353-1.035-1.035-.354.353Zm0-1.043a.738.738 0 0 0 0 1.043l.354-.353a.238.238 0 0 1 0-.336L8.6 8.168Zm1.044 0a.738.738 0 0 0-1.044 0l.354.354a.238.238 0 0 1 .336 0l.354-.354Zm1.034 1.035L9.644 8.168l-.354.354 1.035 1.034.354-.353Zm.681-1.035-1.034 1.035.354.353 1.034-1.034-.353-.354Zm1.044 0a.738.738 0 0 0-1.043 0l.353.354a.238.238 0 0 1 .336 0l.354-.354Zm0 1.043a.738.738 0 0 0 0-1.043l-.354.354a.238.238 0 0 1 0 .336l.354.353Zm-1.035 1.035 1.035-1.035-.354-.353-1.034 1.035.353.353Zm1.035.681-1.035-1.034-.353.353 1.034 1.035.354-.354Zm0 1.043a.738.738 0 0 0 0-1.043l-.354.354a.238.238 0 0 1 0 .336l.354.353Zm-1.043 0a.738.738 0 0 0 1.043 0l-.354-.353a.238.238 0 0 1-.336 0l-.353.353Zm-1.035-1.034 1.035 1.034.353-.353-1.034-1.035-.354.354Zm-.681 1.034 1.034-1.034-.353-.354-1.035 1.035.354.353Zm-1.044 0a.738.738 0 0 0 1.044 0l-.354-.353a.238.238 0 0 1-.336 0l-.354.353Zm4.93-1.043a.738.738 0 0 0 0 1.043l.353-.353a.238.238 0 0 1 0-.336l-.354-.354Zm1.034-1.034-1.035 1.034.354.354 1.035-1.035-.354-.353Zm.354 0-1.035-1.035-.354.353 1.035 1.035.354-.353Zm-1.035-1.035a.238.238 0 0 1 0-.336l-.354-.354a.738.738 0 0 0 0 1.043l.354-.353Zm0-.336a.238.238 0 0 1 .336 0l.354-.354a.738.738 0 0 0-1.044 0l.354.354Zm.336 0 1.035 1.034.353-.353-1.034-1.035-.354.354Zm2.07-.354-1.035 1.035.353.353 1.035-1.034-.354-.354Zm1.043 0a.738.738 0 0 0-1.044 0l.354.354a.238.238 0 0 1 .336 0l.354-.354Zm0 1.043a.738.738 0 0 0 0-1.043l-.354.354a.238.238 0 0 1 0 .336l.354.353Zm-1.035 1.035 1.035-1.035-.354-.353-1.034 1.035.353.353Zm-.353 0 1.034 1.035.354-.354-1.035-1.034-.353.353Zm1.034 1.035a.238.238 0 0 1 0 .336l.354.353a.738.738 0 0 0 0-1.043l-.354.354Zm0 .336a.238.238 0 0 1-.336 0l-.354.353a.738.738 0 0 0 1.044 0l-.354-.353Zm-.336 0-1.035-1.035-.353.354 1.034 1.034.354-.353Zm-2.07.353 1.035-1.034-.353-.354-1.035 1.035.354.353Zm-1.043 0a.738.738 0 0 0 1.044 0l-.354-.353a.238.238 0 0 1-.336 0l-.354.353Z"/></svg>