<svg xmlns="http://www.w3.org/2000/svg" width="20" height="20" fill="none"><path fill="#0084FF" d="m19.81 10.724-.003-.006a.935.935 0 0 0-.05-.053c0-.002-.002-.004-.004-.005l-3.576-3.576h1.16c1.46 0 2.409-1.537 1.756-2.842A3.905 3.905 0 0 0 15.6 2.084H.833A.833.833 0 0 0 0 2.917V13.75c0 .92.746 1.666 1.667 1.666a2.5 2.5 0 1 0 5 0h6.665a2.5 2.5 0 1 0 5 0c.92 0 1.666-.746 1.666-1.666v-2.458a.81.81 0 0 0-.187-.568ZM15 10.417V8.262l2.154 2.155H15ZM4.166 16.25a.833.833 0 0 1-.751-1.192.832.832 0 0 0 .035-.055.84.84 0 0 1 .499-.39l.009-.003a.78.78 0 0 1 .304-.021.857.857 0 0 1 .113.021l.009.003a.84.84 0 0 1 .498.39c.011.019.024.037.036.055a.833.833 0 0 1-.752 1.191Zm11.666 0a.833.833 0 0 1-.752-1.192.866.866 0 0 0 .036-.055.839.839 0 0 1 .498-.39l.01-.003a.826.826 0 0 1 .416 0l.01.003a.839.839 0 0 1 .498.39c.011.019.023.037.036.055a.833.833 0 0 1-.752 1.191Zm1.863-2.5a2.493 2.493 0 0 0-1.579-.817l-.019-.002a2.58 2.58 0 0 0-.097-.008l-.037-.003c-.027-.002-.055-.002-.082-.002l-.049-.002-.049.002c-.027 0-.055 0-.082.002-.013 0-.025.002-.037.003a2.598 2.598 0 0 0-.097.008l-.02.002c-.625.07-1.18.372-1.578.817H6.03a2.494 2.494 0 0 0-1.579-.817l-.018-.002a2.588 2.588 0 0 0-.097-.008l-.037-.003c-.028-.002-.055-.002-.083-.002l-.049-.002-.048.002c-.028 0-.056 0-.083.002l-.037.003a2.586 2.586 0 0 0-.097.008l-.019.002c-.625.07-1.18.372-1.579.817h-.636v-10H15.6c.848 0 1.624.48 2.002 1.238a.297.297 0 0 1-.265.429h-3.123a.834.834 0 0 0-.213.016l-.01.003a.853.853 0 0 0-.058.015l-.025.007a.858.858 0 0 0-.058.021l-.028.013a.83.83 0 0 0-.485.667v.01a.872.872 0 0 0-.005.081v5c0 .46.373.833.833.833h4.167v1.667h-.637Z"/><path fill="#0084FF" d="M10 5.417H3.332a.833.833 0 0 0-.833.833v4.167c0 .46.373.833.833.833h6.666c.46 0 .833-.373.833-.833V6.25A.833.833 0 0 0 10 5.417ZM4.165 7.084h1.667v2.5H4.166v-2.5Zm5 2.5H7.499v-2.5h1.667v2.5Z"/></svg>