<svg xmlns="http://www.w3.org/2000/svg" width="21" height="20" fill="none"><path fill="#0084FF" d="M4.801 1.321a2.61 2.61 0 0 0-2.61 2.61v12.707a2.61 2.61 0 0 0 2.61 2.61h7.551l-1.59-1.589h-5.96a1.02 1.02 0 0 1-1.022-1.02V3.93c0-.563.457-1.02 1.021-1.02h9.803c.564 0 1.02.457 1.02 1.02v10.456l1.27-1.268c.065-.066.135-.123.209-.173l.11-.074v-8.94a2.61 2.61 0 0 0-2.609-2.61H4.801Z"/><path fill="#0084FF" d="M6.253 5.316a1.158 1.158 0 1 0 0 2.315 1.158 1.158 0 0 0 0-2.315ZM8.795 5.679a.795.795 0 0 0 0 1.589h4.72a.795.795 0 0 0 0-1.59h-4.72ZM6.253 9.128a1.158 1.158 0 1 0 0 2.315 1.158 1.158 0 0 0 0-2.315ZM8.795 9.49a.795.795 0 1 0 0 1.59h4.72a.795.795 0 1 0 0-1.59h-4.72ZM6.253 12.94a1.158 1.158 0 1 0 0 2.315 1.158 1.158 0 0 0 0-2.315ZM8.795 13.303a.795.795 0 1 0 0 1.59h4.72a.795.795 0 0 0 0-1.59h-4.72Z"/><path fill="#0084FF" d="M18.433 13.536a.795.795 0 0 0-1.123 0l-3.795 3.795-1.615-1.615a.795.795 0 0 0-1.124 1.124l2.177 2.176a.794.794 0 0 0 1.124 0l4.356-4.356a.795.795 0 0 0 0-1.124Z"/></svg>