<svg xmlns="http://www.w3.org/2000/svg" width="20" height="21" fill="none"><path fill="#0084FF" d="M10 1.5c-3.85 0-7 3.24-7 7.2 0 4.86 6.125 10.35 6.387 10.62.175.09.438.18.613.18s.438-.09.613-.18C10.875 19.05 17 13.56 17 8.7c0-3.96-3.15-7.2-7-7.2Zm0 15.93c-1.838-1.8-5.25-5.67-5.25-8.73 0-2.97 2.362-5.4 5.25-5.4 2.887 0 5.25 2.43 5.25 5.4s-3.412 6.93-5.25 8.73ZM10 5.1c-1.925 0-3.5 1.62-3.5 3.6s1.575 3.6 3.5 3.6 3.5-1.62 3.5-3.6-1.575-3.6-3.5-3.6Zm0 5.4c-.963 0-1.75-.81-1.75-1.8S9.037 6.9 10 6.9s1.75.81 1.75 1.8-.787 1.8-1.75 1.8Z"/></svg>