<svg xmlns="http://www.w3.org/2000/svg" width="15" height="12" fill="none"><g clip-path="url(#a)"><path fill="#4285F4" d="M1.827 11.28h2.24V5.84l-3.2-2.4v6.88c0 .53.43.96.96.96Z"/><path fill="#34A853" d="M11.747 11.28h2.24a.96.96 0 0 0 .96-.96V3.44l-3.2 2.4"/><path fill="#FBBC04" d="M11.747 1.68v4.16l3.2-2.4V2.16c0-1.188-1.355-1.864-2.304-1.152"/><path fill="#EA4335" d="M4.067 5.84V1.68l3.84 2.88 3.84-2.88v4.16l-3.84 2.88"/><path fill="#C5221F" d="M.867 2.16v1.28l3.2 2.4V1.68l-.896-.672C2.22.296.867.972.867 2.16Z"/></g><defs><clipPath id="a"><path fill="#fff" d="M.867.72h14.08v10.56H.867z"/></clipPath></defs></svg>