<svg xmlns="http://www.w3.org/2000/svg" width="18" height="19" fill="none"><g clip-path="url(#a)"><path fill="#4285F4" d="M17.809 9.936c0-.592-.053-1.155-.143-1.702H9.191v3.382h4.853c-.218 1.11-.855 2.048-1.8 2.685v2.25h2.895c1.695-1.567 2.67-3.877 2.67-6.615Z"/><path fill="#34A853" d="M9.192 18.734c2.43 0 4.462-.81 5.947-2.183l-2.895-2.25c-.81.54-1.837.87-3.052.87-2.348 0-4.335-1.582-5.048-3.72H1.16v2.318c1.478 2.94 4.515 4.965 8.033 4.965Z"/><path fill="#FBBC05" d="M4.144 11.451a5.223 5.223 0 0 1-.285-1.717c0-.6.105-1.178.285-1.718V5.7H1.159a8.896 8.896 0 0 0 0 8.07l2.985-2.318Z"/><path fill="#EA4335" d="M9.192 4.296c1.327 0 2.512.458 3.45 1.35l2.565-2.565C13.654 1.626 11.622.734 9.192.734c-3.518 0-6.555 2.025-8.033 4.965l2.985 2.317c.713-2.137 2.7-3.72 5.048-3.72Z"/></g><defs><clipPath id="a"><path fill="#fff" d="M0 .734h18v18H0z"/></clipPath></defs></svg>