<svg xmlns="http://www.w3.org/2000/svg" width="22" height="22" fill="none"><path fill="#03A9F4" d="M18.587 6.063a6.39 6.39 0 0 1-1.812.495 3.148 3.148 0 0 0 1.387-1.731c-.61.357-1.284.62-2.002.758a3.148 3.148 0 0 0-2.298-.985c-1.74 0-3.152 1.398-3.152 3.123 0 .244.029.482.082.712A8.981 8.981 0 0 1 4.298 5.17a3.117 3.117 0 0 0 .975 4.174 3.209 3.209 0 0 1-1.43-.39v.036a3.133 3.133 0 0 0 2.528 3.064 3.134 3.134 0 0 1-1.422.054 3.157 3.157 0 0 0 2.943 2.17 6.368 6.368 0 0 1-4.665 1.293 9.006 9.006 0 0 0 4.831 1.402c5.796 0 8.967-4.76 8.967-8.89 0-.134-.004-.27-.01-.402a6.2 6.2 0 0 0 1.573-1.618Z"/></svg>