<svg xmlns="http://www.w3.org/2000/svg" width="75" height="8" fill="none"><path fill="#0084FF" d="M67.07 1.636c-1.573-.115-3.148-.198-4.722-.297-.52-.032-1.04-.034-1.56-.05l-3.381-.11c-.628-.02-1.256-.044-1.884-.06a22.145 22.145 0 0 0-.545-.006c-.41 0-.818.008-1.227.01l-5.578.007c-.443 0-.886.014-1.328.022l-3.288.054c-1.236.02-2.473.028-3.709.066l-6.002.187c-1.158.035-2.317.056-3.474.114-1.995.1-3.99.198-5.985.296-1.09.054-2.181.099-3.27.175l-6.189.433c-1.102.077-2.206.134-3.306.251l-6.16.659-1.332.142c-.887.094-1.77.241-2.655.366l-.167.029a.612.612 0 0 0-.276.202.897.897 0 0 0-.183.554c0 .207.067.408.183.554.106.134.287.252.443.23 1.067-.15 2.132-.31 3.202-.424l2.974-.316 3.245-.345c.436-.046.872-.108 1.309-.138l5.06-.349 3.154-.218c.435-.03.87-.068 1.303-.09 1.672-.084 3.344-.16 5.015-.24 1.013-.05 2.026-.097 3.04-.146.34-.016.68-.037 1.02-.047 1.806-.053 3.61-.104 5.415-.155l3.024-.087c.359-.01.717-.025 1.076-.03l5.584-.072c1.161-.015 2.322-.029 3.483-.025l5.93.018c.39 0 .78.021 1.17.035l3.272.12 2.455.091c.58.021 1.16.076 1.74.115 1.708.116 3.416.235 5.123.369.433.034.867.075 1.3.115.465.042.93.083 1.394.149.072.014.143.031.215.05a.581.581 0 0 0 .522-.085.856.856 0 0 0 .311-.507c.098-.447-.117-.921-.473-1.044-.31-.108-.634-.152-.954-.192l-.659-.083c-.422-.054-.848-.08-1.27-.12-.794-.076-1.59-.119-2.385-.177Z"/><path fill="#0084FF" d="M69.572 3.17c-1.35-.166-2.703-.3-4.055-.45-.446-.049-.894-.067-1.341-.101L61.268 2.4c-.54-.04-1.08-.086-1.62-.121-.156-.01-.312-.018-.47-.024-.351-.013-.704-.019-1.055-.031l-4.803-.173c-.381-.014-.763-.015-1.144-.022l-2.832-.052c-1.065-.02-2.13-.052-3.196-.054l-5.173-.008c-.998-.002-1.996-.02-2.995 0-1.72.036-3.441.07-5.162.103-.94.019-1.88.028-2.82.069l-5.343.232c-.951.041-1.903.062-2.854.144l-5.325.458-1.151.1c-.767.065-1.533.183-2.298.28l-.144.022a.535.535 0 0 0-.244.193.99.99 0 0 0-.176.548 1 1 0 0 0 .14.56c.087.137.239.26.373.244.924-.116 1.846-.241 2.771-.32l2.57-.22 2.805-.239c.377-.032.755-.08 1.132-.095 1.455-.063 2.911-.124 4.367-.185l2.723-.116c.375-.016.75-.039 1.125-.047 1.441-.03 2.883-.052 4.325-.078.873-.016 1.747-.03 2.62-.047.294-.005.588-.015.882-.014l4.666.02 2.606.012c.31.001.619-.002.928.005l4.81.11c1 .022 2 .046 2.999.087l5.104.21c.336.013.67.047 1.006.073l2.813.227 2.111.17c.5.04.997.113 1.495.171 1.467.171 2.933.346 4.398.534.372.048.744.104 1.116.158.398.057.798.113 1.195.194.061.017.122.036.184.058a.444.444 0 0 0 .452-.069.879.879 0 0 0 .284-.497c.099-.443-.071-.924-.373-1.059-.264-.118-.541-.171-.816-.222l-.564-.105c-.362-.067-.727-.107-1.09-.161-.681-.1-1.365-.17-2.048-.254Z"/></svg>