<svg xmlns="http://www.w3.org/2000/svg" width="98" height="228" fill="none"><g fill="#000" fill-opacity=".1" clip-path="url(#a)"><path d="M50.82 74.23c1.424 0 2.61 1.188 2.61 2.69 0 1.468-1.152 2.691-2.61 2.691-1.425 0-2.612-1.188-2.612-2.69 0-1.504 1.187-2.692 2.611-2.692ZM50.82 49.486c1.424 0 2.61 1.188 2.61 2.691 0 1.468-1.152 2.691-2.61 2.691-1.425 0-2.612-1.188-2.612-2.69 0-1.504 1.187-2.692 2.611-2.692ZM50.82 24.743c1.424 0 2.61 1.188 2.61 2.69 0 1.469-1.152 2.692-2.61 2.692-1.425 0-2.612-1.188-2.612-2.691 0-1.468 1.187-2.691 2.611-2.691ZM50.82 0c1.424 0 2.61 1.188 2.61 2.69 0 1.469-1.152 2.692-2.61 2.692-1.425 0-2.612-1.188-2.612-2.691C48.208 1.223 49.395 0 50.819 0ZM28.809 74.23c1.424 0 2.611 1.188 2.611 2.69 0 1.468-1.153 2.691-2.611 2.691-1.425 0-2.612-1.188-2.612-2.69 0-1.504 1.153-2.692 2.612-2.692ZM28.809 49.486c1.424 0 2.611 1.188 2.611 2.691 0 1.468-1.153 2.691-2.611 2.691-1.425 0-2.612-1.188-2.612-2.69 0-1.504 1.153-2.692 2.612-2.692ZM28.809 24.743c1.424 0 2.611 1.188 2.611 2.69 0 1.469-1.153 2.692-2.611 2.692-1.425 0-2.612-1.188-2.612-2.691 0-1.468 1.153-2.691 2.612-2.691ZM28.809 0c1.424 0 2.611 1.188 2.611 2.69 0 1.469-1.153 2.692-2.611 2.692-1.425 0-2.612-1.188-2.612-2.691C26.197 1.223 27.35 0 28.81 0ZM6.765 74.23c1.424 0 2.611 1.188 2.611 2.69 0 1.468-1.153 2.691-2.611 2.691-1.425 0-2.612-1.188-2.612-2.69 0-1.504 1.187-2.692 2.612-2.692ZM6.765 49.486c1.424 0 2.611 1.188 2.611 2.691 0 1.468-1.153 2.691-2.611 2.691-1.425 0-2.612-1.188-2.612-2.69 0-1.504 1.187-2.692 2.612-2.692ZM6.765 24.743c1.424 0 2.611 1.188 2.611 2.69 0 1.469-1.153 2.692-2.611 2.692-1.425 0-2.612-1.188-2.612-2.691 0-1.468 1.187-2.691 2.612-2.691ZM6.765 0c1.424 0 2.611 1.188 2.611 2.69 0 1.469-1.153 2.692-2.611 2.692-1.425 0-2.612-1.188-2.612-2.691C4.153 1.223 5.34 0 6.765 0ZM50.82 148.424c1.424 0 2.61 1.188 2.61 2.691 0 1.467-1.152 2.691-2.61 2.691-1.425 0-2.612-1.189-2.612-2.691 0-1.468 1.187-2.691 2.611-2.691ZM50.82 123.681c1.424 0 2.61 1.188 2.61 2.691 0 1.467-1.152 2.691-2.61 2.691-1.425 0-2.612-1.189-2.612-2.691 0-1.468 1.187-2.691 2.611-2.691ZM50.82 98.972c1.424 0 2.61 1.189 2.61 2.691 0 1.468-1.152 2.691-2.61 2.691-1.425 0-2.612-1.188-2.612-2.691 0-1.502 1.187-2.69 2.611-2.69ZM28.809 148.424c1.424 0 2.611 1.188 2.611 2.691 0 1.467-1.153 2.691-2.611 2.691-1.425 0-2.612-1.189-2.612-2.691 0-1.468 1.153-2.691 2.612-2.691ZM28.809 123.681c1.424 0 2.611 1.188 2.611 2.691 0 1.467-1.153 2.691-2.611 2.691-1.425 0-2.612-1.189-2.612-2.691 0-1.468 1.153-2.691 2.612-2.691ZM28.809 98.972c1.424 0 2.611 1.189 2.611 2.691 0 1.468-1.153 2.691-2.611 2.691-1.425 0-2.612-1.188-2.612-2.691 0-1.502 1.153-2.69 2.612-2.69ZM6.765 148.424c1.424 0 2.611 1.188 2.611 2.691 0 1.467-1.153 2.691-2.611 2.691-1.425 0-2.612-1.189-2.612-2.691 0-1.468 1.187-2.691 2.612-2.691ZM94.84 74.23c1.425 0 2.612 1.188 2.612 2.69 0 1.468-1.153 2.691-2.611 2.691-1.424 0-2.611-1.188-2.611-2.69.033-1.504 1.186-2.692 2.61-2.692ZM94.84 49.486c1.425 0 2.612 1.188 2.612 2.691 0 1.468-1.153 2.691-2.611 2.691-1.424 0-2.611-1.188-2.611-2.69.033-1.504 1.186-2.692 2.61-2.692ZM94.84 24.743c1.425 0 2.612 1.188 2.612 2.69 0 1.469-1.153 2.692-2.611 2.692-1.424 0-2.611-1.188-2.611-2.691.033-1.468 1.186-2.691 2.61-2.691ZM94.84 0c1.425 0 2.612 1.188 2.612 2.69 0 1.469-1.153 2.692-2.611 2.692-1.424 0-2.611-1.188-2.611-2.691C92.263 1.223 93.416 0 94.84 0ZM72.83 74.23c1.425 0 2.612 1.188 2.612 2.69 0 1.468-1.153 2.691-2.612 2.691-1.424 0-2.611-1.188-2.611-2.69 0-1.504 1.187-2.692 2.611-2.692ZM72.83 49.486c1.425 0 2.612 1.188 2.612 2.691 0 1.468-1.153 2.691-2.612 2.691-1.424 0-2.611-1.188-2.611-2.69 0-1.504 1.187-2.692 2.611-2.692ZM72.83 24.743c1.425 0 2.612 1.188 2.612 2.69 0 1.469-1.153 2.692-2.612 2.692-1.424 0-2.611-1.188-2.611-2.691 0-1.468 1.187-2.691 2.611-2.691ZM72.83 0c1.425 0 2.612 1.188 2.612 2.69 0 1.469-1.153 2.692-2.612 2.692-1.424 0-2.611-1.188-2.611-2.691C70.219 1.223 71.406 0 72.83 0ZM94.84 148.424c1.425 0 2.612 1.188 2.612 2.691 0 1.467-1.153 2.691-2.611 2.691-1.424 0-2.611-1.189-2.611-2.691.033-1.468 1.186-2.691 2.61-2.691ZM94.84 123.681c1.425 0 2.612 1.188 2.612 2.691 0 1.467-1.153 2.691-2.611 2.691-1.424 0-2.611-1.189-2.611-2.691.033-1.468 1.186-2.691 2.61-2.691ZM94.84 98.972c1.425 0 2.612 1.189 2.612 2.691 0 1.468-1.153 2.691-2.611 2.691-1.424 0-2.611-1.188-2.611-2.691.033-1.502 1.186-2.69 2.61-2.69ZM72.83 148.424c1.425 0 2.612 1.188 2.612 2.691 0 1.467-1.153 2.691-2.612 2.691-1.424 0-2.611-1.189-2.611-2.691 0-1.468 1.187-2.691 2.611-2.691ZM72.83 123.681c1.425 0 2.612 1.188 2.612 2.691 0 1.467-1.153 2.691-2.612 2.691-1.424 0-2.611-1.189-2.611-2.691 0-1.468 1.187-2.691 2.611-2.691ZM72.83 98.972c1.425 0 2.612 1.189 2.612 2.691 0 1.468-1.153 2.691-2.612 2.691-1.424 0-2.611-1.188-2.611-2.691 0-1.502 1.187-2.69 2.611-2.69ZM6.765 123.681c1.424 0 2.611 1.188 2.611 2.691 0 1.467-1.153 2.691-2.611 2.691-1.425 0-2.612-1.189-2.612-2.691 0-1.468 1.187-2.691 2.612-2.691ZM6.765 98.972c1.424 0 2.611 1.189 2.611 2.691 0 1.468-1.153 2.691-2.611 2.691-1.425 0-2.612-1.188-2.612-2.691 0-1.502 1.187-2.69 2.612-2.69ZM50.82 222.653c1.424 0 2.61 1.188 2.61 2.691 0 1.468-1.152 2.691-2.61 2.691-1.425 0-2.612-1.188-2.612-2.691s1.187-2.691 2.611-2.691ZM50.82 197.91c1.424 0 2.61 1.188 2.61 2.691 0 1.468-1.152 2.691-2.61 2.691-1.425 0-2.612-1.188-2.612-2.691s1.187-2.691 2.611-2.691ZM50.82 173.167c1.424 0 2.61 1.188 2.61 2.691 0 1.468-1.152 2.691-2.61 2.691-1.425 0-2.612-1.188-2.612-2.691s1.187-2.691 2.611-2.691ZM28.809 222.653c1.424 0 2.611 1.188 2.611 2.691 0 1.468-1.153 2.691-2.611 2.691-1.425 0-2.612-1.188-2.612-2.691s1.153-2.691 2.612-2.691ZM28.809 197.91c1.424 0 2.611 1.188 2.611 2.691 0 1.468-1.153 2.691-2.611 2.691-1.425 0-2.612-1.188-2.612-2.691s1.153-2.691 2.612-2.691ZM28.809 173.167c1.424 0 2.611 1.188 2.611 2.691 0 1.468-1.153 2.691-2.611 2.691-1.425 0-2.612-1.188-2.612-2.691s1.153-2.691 2.612-2.691ZM6.765 222.653c1.424 0 2.611 1.188 2.611 2.691 0 1.468-1.153 2.691-2.611 2.691-1.425 0-2.612-1.188-2.612-2.691s1.187-2.691 2.612-2.691ZM94.84 222.653c1.425 0 2.612 1.188 2.612 2.691 0 1.468-1.153 2.691-2.611 2.691-1.424 0-2.611-1.188-2.611-2.691.033-1.503 1.186-2.691 2.61-2.691ZM94.84 197.91c1.425 0 2.612 1.188 2.612 2.691 0 1.468-1.153 2.691-2.611 2.691-1.424 0-2.611-1.188-2.611-2.691.033-1.503 1.186-2.691 2.61-2.691ZM94.84 173.167c1.425 0 2.612 1.188 2.612 2.691 0 1.468-1.153 2.691-2.611 2.691-1.424 0-2.611-1.188-2.611-2.691.033-1.503 1.186-2.691 2.61-2.691ZM72.83 222.653c1.425 0 2.612 1.188 2.612 2.691 0 1.468-1.153 2.691-2.612 2.691-1.424 0-2.611-1.188-2.611-2.691s1.187-2.691 2.611-2.691ZM72.83 197.91c1.425 0 2.612 1.188 2.612 2.691 0 1.468-1.153 2.691-2.612 2.691-1.424 0-2.611-1.188-2.611-2.691s1.187-2.691 2.611-2.691ZM72.83 173.167c1.425 0 2.612 1.188 2.612 2.691 0 1.468-1.153 2.691-2.612 2.691-1.424 0-2.611-1.188-2.611-2.691s1.187-2.691 2.611-2.691ZM6.765 197.91c1.424 0 2.611 1.188 2.611 2.691 0 1.468-1.153 2.691-2.611 2.691-1.425 0-2.612-1.188-2.612-2.691s1.187-2.691 2.612-2.691ZM6.765 173.167c1.424 0 2.611 1.188 2.611 2.691 0 1.468-1.153 2.691-2.611 2.691-1.425 0-2.612-1.188-2.612-2.691s1.187-2.691 2.612-2.691Z" opacity=".7"/></g><defs><clipPath id="a"><path fill="#fff" d="M.71 0h96.743v228H.71z"/></clipPath></defs></svg>