<svg xmlns="http://www.w3.org/2000/svg" width="22" height="26" fill="none"><path fill="#000" fill-rule="evenodd" d="M14.563 24.263c2.071-.636 4.239-.957 6.342-1.25a.81.81 0 0 1 .906.766c.065.485-.259.928-.68.99-2.038.283-4.14.585-6.115 1.197-.42.133-.873-.14-1.003-.61-.13-.47.13-.96.55-1.093ZM8.287 15.248c3.332-3.722 7.085-6.964 10.353-10.786a.75.75 0 0 1 1.133-.043c.323.334.356.895.032 1.252-3.268 3.832-7.021 7.085-10.354 10.817a.784.784 0 0 1-1.164.011c-.292-.342-.324-.903 0-1.251ZM2.04.933l-.29 6.39c0 .489-.389.865-.842.842-.453-.024-.776-.44-.776-.928l.291-6.4C.455.349.843-.025 1.297 0c.42.027.776.445.744.932Z" clip-rule="evenodd"/></svg>