<svg xmlns="http://www.w3.org/2000/svg" width="55" height="55" fill="none" viewBox="0 0 55 55"><g clip-path="url(#a)"><path fill="#0084FF" fill-rule="evenodd" d="m30.831 28.835-.084.362 7.252 4.187a.933.933 0 0 1 .331 1.255.904.904 0 0 1-1.252.34l-7.34-4.237-.265.206a3.763 3.763 0 1 1-3.56-6.523l.333-.118V10.93c0-.512.433-.931.921-.931.5 0 .921.43.921.93v13.377l.333.117a3.765 3.765 0 0 1 2.41 4.411Zm22.836-.861c0 14.635-11.864 26.5-26.5 26.5s-26.5-11.865-26.5-26.5c0-14.636 11.864-26.5 26.5-26.5s26.5 11.864 26.5 26.5Zm-26.5 24.658c13.618 0 24.658-11.04 24.658-24.658 0-13.619-11.04-24.658-24.658-24.658-13.618 0-24.658 11.04-24.658 24.658 0 13.618 11.04 24.658 24.658 24.658Z" clip-rule="evenodd"/></g><defs><clipPath id="a"><path fill="#fff" d="M.167.974h54v54h-54z"/></clipPath></defs></svg>