<svg xmlns="http://www.w3.org/2000/svg" width="55" height="55" fill="none" viewBox="0 0 55 55"><g fill="#0084FF" clip-path="url(#a)"><path d="M22.952 33.082c2.424 2.137 4.402 3.626 7.728 3.626h11.16c1.507 0 2.727-.686 3.434-1.931.661-1.166.744-2.703.213-3.716.372-.17.708-.435.995-.791 1.03-1.283 1.203-3.485.717-4.737a2.48 2.48 0 0 0-.326-.597c.198-.163.394-.384.575-.682.923-1.525.99-4.362.135-5.84a2.724 2.724 0 0 0-.454-.59c.49-.56.788-1.433.788-2.468.001-1.91-1.116-3.964-3.572-3.967l-9.12-.01c1.872-2.73 1.737-6.562.586-8.415-.69-1.111-1.606-1.283-2.32-1.058-.805.02-1.528.885-2.637 2.216-.402.481-.832.998-1.274 1.471-3.825 4.094-5.075 5.44-5.506 5.922l-1.16.493a2.998 2.998 0 0 0-2.76-1.835h-6.98a2.995 2.995 0 0 0-2.99 2.993v18.88a2.995 2.995 0 0 0 2.99 2.994h6.98a2.99 2.99 0 0 0 2.798-1.958Zm.196-19.34 1.751-.744a.84.84 0 0 0 .33-.25c.212-.241 2.49-2.693 5.583-6.003.47-.502.91-1.031 1.338-1.543.496-.594 1.163-1.394 1.471-1.596a.842.842 0 0 0 .355-.081c.136-.06.309.179.402.33.92 1.483 1.016 5.638-1.599 7.704a.843.843 0 0 0 .523 1.506l11.042.011c1.796.002 1.886 1.899 1.886 2.28 0 .933-.37 1.446-.524 1.447l-.149.006c-.656.019-1.142.48-1.129 1.075.012.521.461 1.061 1.236 1.029.08.002.255-.005.458.346.553.958.492 3.114-.117 4.12-.12.2-.24.302-.298.302h-.001a.911.911 0 0 0-.199.015c-.606.119-1.018.59-1.005 1.144.013.556.443 1.005.991 1.075.253.191.487 1.57-.017 2.763-.431 1.015-.983.93-1.162.9a.854.854 0 0 0-.13-.009l-.328.001c-.428-.023-.82.168-1.034.51a1.026 1.026 0 0 0-.03 1.039c.195.351.576.56 1.037.56.007-.007.065-.003.143.13.258.431.268 1.37-.166 2.135-.406.714-1.067 1.077-1.966 1.077H30.68c-3.026 0-4.66-1.458-7.367-3.873L23.148 31V13.742Zm-1.688-.558v18.863c0 .72-.586 1.305-1.306 1.305h-6.98a1.305 1.305 0 0 1-1.302-1.305v-18.88c0-.72.584-1.307 1.302-1.307h6.98c.72 0 1.306.586 1.306 1.306v.018ZM15.793 45.104l-3.803-.736-1.875-3.39a.843.843 0 0 0-1.477-.001l-1.876 3.392-3.802.735a.845.845 0 0 0-.456 1.405l2.645 2.83-.477 3.843a.844.844 0 0 0 1.195.868l3.51-1.64 3.507 1.64a.842.842 0 0 0 1.195-.868l-.477-3.843 2.647-2.83a.845.845 0 0 0-.456-1.405Zm-3.693 3.37a.843.843 0 0 0-.22.68l.336 2.721-2.482-1.161a.842.842 0 0 0-.715 0l-2.485 1.161.337-2.72a.843.843 0 0 0-.22-.68L4.778 46.47l2.692-.52a.847.847 0 0 0 .577-.42l1.33-2.402 1.327 2.401a.845.845 0 0 0 .577.42l2.693.521-1.874 2.003ZM34.498 45.105l-3.804-.736-1.874-3.391c-.297-.538-1.18-.538-1.477 0l-1.875 3.39-3.803.736a.845.845 0 0 0-.456 1.405l2.644 2.83-.477 3.843a.844.844 0 0 0 1.195.868l3.51-1.64 3.507 1.64a.843.843 0 0 0 1.195-.867l-.474-3.844 2.645-2.83a.844.844 0 0 0-.456-1.404Zm-3.691 3.37a.844.844 0 0 0-.22.68l.335 2.72-2.483-1.161a.842.842 0 0 0-.715 0l-2.485 1.162.337-2.721a.842.842 0 0 0-.221-.68l-1.872-2.004 2.693-.52a.846.846 0 0 0 .579-.42l1.326-2.4 1.327 2.4a.846.846 0 0 0 .578.42l2.693.52-1.872 2.004ZM53.349 45.672a.845.845 0 0 0-.642-.568l-3.804-.736-1.874-3.39a.843.843 0 0 0-1.477 0l-1.875 3.39-3.804.736a.845.845 0 0 0-.455 1.405l2.646 2.83-.476 3.843a.844.844 0 0 0 1.195.868l3.508-1.64 3.509 1.64a.843.843 0 0 0 1.195-.868l-.477-3.843 2.645-2.83a.843.843 0 0 0 .186-.837Zm-4.333 2.803a.843.843 0 0 0-.22.68l.337 2.72-2.485-1.161a.843.843 0 0 0-.715 0l-2.483 1.161.337-2.72a.844.844 0 0 0-.22-.68l-1.874-2.004 2.693-.52a.846.846 0 0 0 .577-.42l1.328-2.401 1.326 2.4a.845.845 0 0 0 .578.42l2.694.521-1.873 2.004Z"/></g><defs><clipPath id="a"><path fill="#fff" d="M.833.974h54v54h-54z"/></clipPath></defs></svg>