<svg xmlns="http://www.w3.org/2000/svg" width="55" height="55" fill="none" viewBox="0 0 55 55"><g clip-path="url(#a)"><path fill="#0084FF" d="m46.489 16.963-.004-.007c-.019-.021-.045-.03-.066-.05a3.766 3.766 0 0 0-2.524-.983H39.84V4.79a2.976 2.976 0 0 0-2.973-2.973H10.282A2.976 2.976 0 0 0 7.309 4.79v46.367a2.976 2.976 0 0 0 2.973 2.973h26.586a2.976 2.976 0 0 0 2.973-2.973V37.822h4.054c1.024 0 1.95-.412 2.634-1.074.005-.005.012-.006.017-.011l.002-.005a3.785 3.785 0 0 0 1.142-2.709V19.72a3.776 3.776 0 0 0-1.201-2.756Zm-2.594.648c.168 0 .329.025.485.062L32.654 27.904 20.92 17.674c.158-.038.32-.063.49-.063h22.485Zm-15.15 9.124L19.75 35.31a2.092 2.092 0 0 1-.448-1.287V19.72c0-.36.099-.694.259-.991l9.184 8.007ZM16.828 3.505H30.32v1.11c0 .613-.498 1.11-1.11 1.11H17.94c-.613 0-1.11-.497-1.11-1.11v-1.11Zm-6.546 0h4.859v1.11a2.8 2.8 0 0 0 2.797 2.798H29.21a2.8 2.8 0 0 0 2.798-2.797V3.505h4.861c.709 0 1.286.577 1.286 1.285v11.133H21.409c-.978 0-1.862.382-2.536.992-.017.017-.04.025-.057.044l-.003.007a3.776 3.776 0 0 0-1.199 2.753v.133h-3.228a.844.844 0 0 0 0 1.688h3.228v3.583h-3.228a.844.844 0 0 0 0 1.688h3.228v4.365h-3.228a.844.844 0 0 0 0 1.687h3.228v1.16a3.801 3.801 0 0 0 3.795 3.799h16.745v10.19H8.997V4.79c0-.708.576-1.285 1.285-1.285Zm26.586 48.937H10.282a1.287 1.287 0 0 1-1.285-1.285v-1.458h29.157v1.458c0 .709-.577 1.285-1.286 1.285Zm7.027-16.308H21.409c-.024 0-.047-.006-.07-.007l8.683-8.278 2.077 1.811a.843.843 0 0 0 1.11 0l2.43-2.121 8.923 8.477c-.211.07-.433.118-.667.118Zm2.108-2.11c0 .305-.069.594-.186.857l-8.9-8.457 8.825-7.7c.161.298.26.633.26.995v14.304Z"/></g><defs><clipPath id="a"><path fill="#fff" d="M.5.974h54v54H.5z"/></clipPath></defs></svg>